<svg xmlns="http://www.w3.org/2000/svg" width="62" height="45" viewBox="0 0 62 45" fill="none">
<path d="M53.316 10.5479C54.18 11.0995 55.0804 11.9642 55.0804 13.179V17.1328C55.0804 18.3475 54.18 19.2122 53.316 19.7639C52.8257 20.077 52.244 20.3583 51.5946 20.6101V21.7455C51.5946 22.0176 51.5494 22.2721 51.4697 22.5094C51.9422 23.0034 52.2918 23.6244 52.2918 24.3814V28.3352C52.2918 29.5499 51.3914 30.4146 50.5274 30.9663C49.6148 31.549 48.3858 32.0218 46.9925 32.3982C44.1868 33.1559 40.3916 33.6069 36.2572 33.6069C32.1227 33.6069 28.3276 33.1559 25.5218 32.3982C24.1285 32.0218 22.8995 31.549 21.9869 30.9663C21.1229 30.4146 20.2225 29.5499 20.2225 28.3352V24.3814C20.2225 24.1094 20.2677 23.8549 20.3475 23.6175C19.8749 23.1235 19.5254 22.5025 19.5254 21.7455V17.7917C19.5254 16.577 20.4258 15.7123 21.2898 15.1606C21.7801 14.8476 22.3618 14.5662 23.0112 14.3144V13.179C23.0112 11.9642 23.9116 11.0995 24.7755 10.5479C25.6881 9.96514 26.9171 9.49233 28.3105 9.116C31.1162 8.35825 34.9113 7.90726 39.0458 7.90726C43.1803 7.90726 46.9754 8.35825 49.7811 9.116C51.1744 9.49233 52.4035 9.96514 53.316 10.5479Z" fill="#021024" fill-opacity="0.101961"/>
<path d="M49.4964 23.0638C49.4964 20.8802 42.9417 19.11 34.8561 19.11C26.7705 19.11 20.2158 20.8802 20.2158 23.0638V27.0176C20.2158 29.2012 26.7705 30.9714 34.8561 30.9714C42.9417 30.9714 49.4964 29.2012 49.4964 27.0176V23.0638Z" fill="#FFC53B"/>
<path fill-rule="evenodd" clip-rule="evenodd" d="M49.1232 20.4327C49.9872 20.9843 50.8876 21.849 50.8876 23.0638V27.0176C50.8876 28.2323 49.9872 29.097 49.1232 29.6487C48.2106 30.2314 46.9816 30.7042 45.5883 31.0806C42.7826 31.8383 38.9875 32.2893 34.853 32.2893C30.7185 32.2893 26.9234 31.8383 24.1177 31.0806C22.7243 30.7042 21.4953 30.2314 20.5827 29.6487C19.7187 29.097 18.8184 28.2323 18.8184 27.0176V23.0638C18.8184 21.849 19.7187 20.9843 20.5827 20.4327C21.4953 19.8499 22.7243 19.3771 24.1177 19.0008C26.9234 18.243 30.7185 17.7921 34.853 17.7921C38.9875 17.7921 42.7826 18.243 45.5883 19.0008C46.9816 19.3771 48.2106 19.8499 49.1232 20.4327ZM34.853 19.11C42.9386 19.11 49.4933 20.8802 49.4933 23.0638V27.0176C49.4933 29.2012 42.9386 30.9714 34.853 30.9714C26.7673 30.9714 20.2127 29.2012 20.2127 27.0176V23.0638C20.2127 20.8802 26.7673 19.11 34.853 19.11Z" fill="#F08D1F"/>
<path d="M49.4964 23.0638C49.4964 25.2474 42.9417 27.0176 34.8561 27.0176C26.7705 27.0176 20.2158 25.2474 20.2158 23.0638C20.2158 20.8802 26.7705 19.11 34.8561 19.11C42.9417 19.11 49.4964 20.8802 49.4964 23.0638Z" fill="#FFE05A"/>
<path fill-rule="evenodd" clip-rule="evenodd" d="M45.5883 27.1268C42.7825 27.8845 38.9875 28.3355 34.853 28.3355C30.7185 28.3355 26.9234 27.8845 24.1177 27.1268C22.7243 26.7504 21.4953 26.2776 20.5827 25.6949C19.7187 25.1432 18.8184 24.2785 18.8184 23.0638C18.8184 21.849 19.7187 20.9843 20.5827 20.4327C21.4953 19.8499 22.7243 19.3771 24.1177 19.0008C26.9234 18.243 30.7185 17.7921 34.853 17.7921C38.9875 17.7921 42.7825 18.243 45.5883 19.0008C46.9816 19.3771 48.2106 19.8499 49.1232 20.4327C49.9872 20.9843 50.8876 21.849 50.8876 23.0638C50.8876 24.2785 49.9872 25.1432 49.1232 25.6949C48.2106 26.2776 46.9816 26.7504 45.5883 27.1268ZM34.853 27.0176C42.9386 27.0176 49.4933 25.2474 49.4933 23.0638C49.4933 20.8802 42.9386 19.11 34.853 19.11C26.7673 19.11 20.2127 20.8802 20.2127 23.0638C20.2127 25.2474 26.7673 27.0176 34.853 27.0176Z" fill="#F08D1F"/>
<path fill-rule="evenodd" clip-rule="evenodd" d="M23.7059 25.6998C24.091 25.6998 24.4031 25.9948 24.4031 26.3587V29.9831C24.4031 30.347 24.091 30.642 23.7059 30.642C23.3209 30.642 23.0088 30.347 23.0088 29.9831V26.3587C23.0088 25.9948 23.3209 25.6998 23.7059 25.6998ZM46.015 25.6998C46.4 25.6998 46.7121 25.9948 46.7121 26.3587V29.9831C46.7121 30.347 46.4 30.642 46.015 30.642C45.6299 30.642 45.3178 30.347 45.3178 29.9831V26.3587C45.3178 25.9948 45.6299 25.6998 46.015 25.6998ZM29.2832 27.0177C29.6682 27.0177 29.9804 27.3127 29.9804 27.6767V30.642C29.9804 31.006 29.6682 31.301 29.2832 31.301C28.8982 31.301 28.586 31.006 28.586 30.642V27.6767C28.586 27.3127 28.8982 27.0177 29.2832 27.0177ZM41.1349 27.0177C41.5199 27.0177 41.832 27.3127 41.832 27.6767V30.642C41.832 31.006 41.5199 31.301 41.1349 31.301C40.7498 31.301 40.4377 31.006 40.4377 30.642V27.6767C40.4377 27.3127 40.7498 27.0177 41.1349 27.0177ZM35.5576 27.0177C35.9427 27.0177 36.2548 27.3127 36.2548 27.6767V30.642C36.2548 31.006 35.9427 31.301 35.5576 31.301C35.1726 31.301 34.8605 31.006 34.8605 30.642V27.6767C34.8605 27.3127 35.1726 27.0177 35.5576 27.0177Z" fill="#F08D1F"/>
<path d="M48.806 16.474C48.806 14.2904 42.2513 12.5202 34.1657 12.5202C26.0801 12.5202 19.5254 14.2904 19.5254 16.474V20.4278C19.5254 22.6114 26.0801 24.3816 34.1657 24.3816C42.2513 24.3816 48.806 22.6114 48.806 20.4278V16.474Z" fill="#FFC53B"/>
<path fill-rule="evenodd" clip-rule="evenodd" d="M48.4328 13.8429C49.2968 14.3946 50.1971 15.2593 50.1971 16.474V20.4278C50.1971 21.6425 49.2968 22.5072 48.4328 23.0589C47.5202 23.6416 46.2912 24.1144 44.8978 24.4908C42.0921 25.2485 38.297 25.6995 34.1625 25.6995C30.028 25.6995 26.2329 25.2485 23.4272 24.4908C22.0339 24.1144 20.8049 23.6416 19.8923 23.0589C19.0283 22.5072 18.1279 21.6425 18.1279 20.4278V16.474C18.1279 15.2593 19.0283 14.3946 19.8923 13.8429C20.8049 13.2602 22.0339 12.7873 23.4272 12.411C26.2329 11.6533 30.028 11.2023 34.1625 11.2023C38.297 11.2023 42.0921 11.6533 44.8978 12.411C46.2912 12.7873 47.5202 13.2602 48.4328 13.8429ZM34.1625 12.5202C42.2482 12.5202 48.8028 14.2904 48.8028 16.474V20.4278C48.8028 22.6114 42.2482 24.3816 34.1625 24.3816C26.0769 24.3816 19.5222 22.6114 19.5222 20.4278V16.474C19.5222 14.2904 26.0769 12.5202 34.1625 12.5202Z" fill="#F08D1F"/>
<path d="M48.806 16.474C48.806 18.6576 42.2513 20.4278 34.1657 20.4278C26.0801 20.4278 19.5254 18.6576 19.5254 16.474C19.5254 14.2904 26.0801 12.5202 34.1657 12.5202C42.2513 12.5202 48.806 14.2904 48.806 16.474Z" fill="#FFE05A"/>
<path fill-rule="evenodd" clip-rule="evenodd" d="M44.8978 20.537C42.0921 21.2947 38.297 21.7457 34.1625 21.7457C30.028 21.7457 26.2329 21.2947 23.4272 20.537C22.0339 20.1606 20.8049 19.6878 19.8923 19.1051C19.0283 18.5534 18.1279 17.6887 18.1279 16.474C18.1279 15.2593 19.0283 14.3946 19.8923 13.8429C20.8049 13.2602 22.0339 12.7873 23.4272 12.411C26.2329 11.6533 30.028 11.2023 34.1625 11.2023C38.297 11.2023 42.0921 11.6533 44.8978 12.411C46.2912 12.7873 47.5202 13.2602 48.4328 13.8429C49.2968 14.3946 50.1971 15.2593 50.1971 16.474C50.1971 17.6887 49.2968 18.5534 48.4328 19.1051C47.5202 19.6878 46.2912 20.1606 44.8978 20.537ZM34.1625 20.4278C42.2482 20.4278 48.8028 18.6576 48.8028 16.474C48.8028 14.2904 42.2482 12.5202 34.1625 12.5202C26.0769 12.5202 19.5222 14.2904 19.5222 16.474C19.5222 18.6576 26.0769 20.4278 34.1625 20.4278Z" fill="#F08D1F"/>
<path fill-rule="evenodd" clip-rule="evenodd" d="M23.0087 19.11C23.3937 19.11 23.7058 19.405 23.7058 19.7689V23.3933C23.7058 23.7572 23.3937 24.0522 23.0087 24.0522C22.6236 24.0522 22.3115 23.7572 22.3115 23.3933V19.7689C22.3115 19.405 22.6236 19.11 23.0087 19.11ZM45.3177 19.11C45.7027 19.11 46.0149 19.405 46.0149 19.7689V23.3933C46.0149 23.7572 45.7027 24.0522 45.3177 24.0522C44.9327 24.0522 44.6205 23.7572 44.6205 23.3933V19.7689C44.6205 19.405 44.9327 19.11 45.3177 19.11ZM28.5859 20.4279C28.971 20.4279 29.2831 20.7229 29.2831 21.0869V24.0522C29.2831 24.4162 28.971 24.7112 28.5859 24.7112C28.2009 24.7112 27.8888 24.4162 27.8888 24.0522V21.0869C27.8888 20.7229 28.2009 20.4279 28.5859 20.4279ZM40.4376 20.4279C40.8226 20.4279 41.1348 20.7229 41.1348 21.0869V24.0522C41.1348 24.4162 40.8226 24.7112 40.4376 24.7112C40.0526 24.7112 39.7404 24.4162 39.7404 24.0522V21.0869C39.7404 20.7229 40.0526 20.4279 40.4376 20.4279ZM34.8603 20.4279C35.2454 20.4279 35.5575 20.7229 35.5575 21.0869V24.0522C35.5575 24.4162 35.2454 24.7112 34.8603 24.7112C34.4753 24.7112 34.1632 24.4162 34.1632 24.0522V21.0869C34.1632 20.7229 34.4753 20.4279 34.8603 20.4279Z" fill="#F08D1F"/>
<path d="M52.2894 11.8611C52.2894 9.67744 45.7347 7.90726 37.6491 7.90726C29.5635 7.90726 23.0088 9.67744 23.0088 11.8611V15.8148C23.0088 17.9985 29.5635 19.7686 37.6491 19.7686C45.7347 19.7686 52.2894 17.9985 52.2894 15.8148V11.8611Z" fill="#FFC53B"/>
<path fill-rule="evenodd" clip-rule="evenodd" d="M51.9172 9.23039C52.7812 9.78208 53.6815 10.6468 53.6815 11.8615V15.8153C53.6815 17.03 52.7812 17.8947 51.9172 18.4464C51.0046 19.0291 49.7756 19.502 48.3822 19.8783C45.5765 20.636 41.7814 21.087 37.6469 21.087C33.5124 21.087 29.7173 20.636 26.9116 19.8783C25.5183 19.502 24.2892 19.0291 23.3767 18.4464C22.5127 17.8947 21.6123 17.03 21.6123 15.8153V11.8615C21.6123 10.6468 22.5127 9.78208 23.3767 9.23039C24.2892 8.64766 25.5183 8.17486 26.9116 7.79852C29.7173 7.04078 33.5124 6.58978 37.6469 6.58978C41.7814 6.58978 45.5765 7.04078 48.3822 7.79852C49.7756 8.17486 51.0046 8.64766 51.9172 9.23039ZM37.6469 7.90772C45.7325 7.90772 52.2872 9.67789 52.2872 11.8615V15.8153C52.2872 17.9989 45.7325 19.7691 37.6469 19.7691C29.5613 19.7691 23.0066 17.9989 23.0066 15.8153V11.8615C23.0066 9.67789 29.5613 7.90772 37.6469 7.90772Z" fill="#F08D1F"/>
<path d="M52.2894 11.8611C52.2894 14.0447 45.7347 15.8148 37.6491 15.8148C29.5635 15.8148 23.0088 14.0447 23.0088 11.8611C23.0088 9.67744 29.5635 7.90726 37.6491 7.90726C45.7347 7.90726 52.2894 9.67744 52.2894 11.8611Z" fill="#FFE05A"/>
<path fill-rule="evenodd" clip-rule="evenodd" d="M48.3822 15.9245C45.5764 16.6822 41.7814 17.1332 37.6469 17.1332C33.5124 17.1332 29.7173 16.6822 26.9116 15.9245C25.5183 15.5482 24.2892 15.0753 23.3767 14.4926C22.5127 13.9409 21.6123 13.0762 21.6123 11.8615C21.6123 10.6468 22.5127 9.78208 23.3767 9.23039C24.2892 8.64766 25.5183 8.17486 26.9116 7.79852C29.7173 7.04078 33.5124 6.58978 37.6469 6.58978C41.7814 6.58978 45.5764 7.04078 48.3822 7.79852C49.7756 8.17486 51.0046 8.64766 51.9172 9.23039C52.7812 9.78208 53.6815 10.6468 53.6815 11.8615C53.6815 13.0762 52.7812 13.9409 51.9172 14.4926C51.0046 15.0753 49.7756 15.5482 48.3822 15.9245ZM37.6469 15.8153C45.7325 15.8153 52.2872 14.0451 52.2872 11.8615C52.2872 9.67789 45.7325 7.90772 37.6469 7.90772C29.5613 7.90772 23.0066 9.67789 23.0066 11.8615C23.0066 14.0451 29.5613 15.8153 37.6469 15.8153Z" fill="#F08D1F"/>
<path fill-rule="evenodd" clip-rule="evenodd" d="M26.4921 14.497C26.8771 14.497 27.1892 14.7921 27.1892 15.156V18.7803C27.1892 19.1443 26.8771 19.4393 26.4921 19.4393C26.107 19.4393 25.7949 19.1443 25.7949 18.7803V15.156C25.7949 14.7921 26.107 14.497 26.4921 14.497ZM48.8011 14.497C49.1861 14.497 49.4983 14.7921 49.4983 15.156V18.7803C49.4983 19.1443 49.1861 19.4393 48.8011 19.4393C48.4161 19.4393 48.1039 19.1443 48.1039 18.7803V15.156C48.1039 14.7921 48.4161 14.497 48.8011 14.497ZM32.0693 15.815C32.4544 15.815 32.7665 16.11 32.7665 16.4739V19.4393C32.7665 19.8032 32.4544 20.0982 32.0693 20.0982C31.6843 20.0982 31.3722 19.8032 31.3722 19.4393V16.4739C31.3722 16.11 31.6843 15.815 32.0693 15.815ZM43.921 15.815C44.306 15.815 44.6182 16.11 44.6182 16.4739V19.4393C44.6182 19.8032 44.306 20.0982 43.921 20.0982C43.536 20.0982 43.2238 19.8032 43.2238 19.4393V16.4739C43.2238 16.11 43.536 15.815 43.921 15.815ZM38.3437 15.815C38.7288 15.815 39.0409 16.11 39.0409 16.4739V19.4393C39.0409 19.8032 38.7288 20.0982 38.3437 20.0982C37.9587 20.0982 37.6466 19.8032 37.6466 19.4393V16.4739C37.6466 16.11 37.9587 15.815 38.3437 15.815Z" fill="#F08D1F"/>
<path d="M35.5572 6.58969C35.5572 5.37495 34.6568 4.51026 33.7928 3.95857C32.8802 3.37585 31.6512 2.90304 30.2579 2.5267C27.4522 1.76896 23.6571 1.31796 19.5226 1.31796C15.3881 1.31796 11.593 1.76896 8.78725 2.5267C7.39392 2.90304 6.1649 3.37585 5.25232 3.95857C4.38833 4.51026 3.48796 5.37495 3.48796 6.58969V10.5435C3.48796 11.7582 4.38833 12.6229 5.25232 13.1746C5.86024 13.5628 6.60864 13.9022 7.45248 14.1969C7.193 14.2582 6.94062 14.322 6.69578 14.3881C5.30244 14.7644 4.07343 15.2372 3.16085 15.82C2.29686 16.3716 1.39648 17.2363 1.39648 18.4511V22.4049C1.39648 23.6196 2.29686 24.4843 3.16085 25.036C3.98077 25.5595 5.05607 25.9944 6.27658 26.3502V26.4704C5.90312 26.6422 5.55976 26.8261 5.25232 27.0224C4.38833 27.5741 3.48796 28.4387 3.48796 29.6535V33.6073C3.48796 34.822 4.38833 35.6867 5.25232 36.2384C6.1649 36.8211 7.39392 37.2939 8.78725 37.6703C11.593 38.428 15.3881 38.879 19.5226 38.879C23.6571 38.879 27.4522 38.428 30.2579 37.6703C31.6512 37.2939 32.8802 36.8211 33.7928 36.2384C34.6568 35.6867 35.5572 34.822 35.5572 33.6073V30.8597C35.9306 30.6879 36.274 30.504 36.5814 30.3077C37.4454 29.756 38.3458 28.8913 38.3458 27.6766V23.7228C38.3458 22.5081 37.4454 21.6434 36.5814 21.0917C36.1548 20.8193 35.659 20.5708 35.1095 20.3451C36.2271 20.0035 37.2122 19.5929 37.9757 19.1053C38.8397 18.5536 39.7401 17.6889 39.7401 16.4742V12.5204C39.7401 11.3056 38.8397 10.4409 37.9757 9.88926C37.3158 9.46792 36.4905 9.10397 35.5572 8.79248V6.58969Z" fill="#021024" fill-opacity="0.101961"/>
<path d="M32.765 28.3356C32.765 26.152 26.2103 24.3818 18.1247 24.3818C10.039 24.3818 3.48438 26.152 3.48438 28.3356V32.2894C3.48438 34.473 10.039 36.2432 18.1247 36.2432C26.2103 36.2432 32.765 34.473 32.765 32.2894V28.3356Z" fill="#FFC53B"/>
<path fill-rule="evenodd" clip-rule="evenodd" d="M32.3918 25.7042C33.2558 26.2559 34.1561 27.1206 34.1561 28.3354V32.2891C34.1561 33.5039 33.2558 34.3686 32.3918 34.9203C31.4792 35.503 30.2502 35.9758 28.8568 36.3521C26.0511 37.1099 22.256 37.5609 18.1215 37.5609C13.987 37.5609 10.1919 37.1099 7.38621 36.3521C5.99287 35.9758 4.76386 35.503 3.85128 34.9203C2.98729 34.3686 2.08691 33.5039 2.08691 32.2891V28.3354C2.08691 27.1206 2.98729 26.2559 3.85128 25.7042C4.76386 25.1215 5.99287 24.6487 7.38621 24.2724C10.1919 23.5146 13.987 23.0636 18.1215 23.0636C22.256 23.0636 26.0511 23.5146 28.8568 24.2724C30.2502 24.6487 31.4792 25.1215 32.3918 25.7042ZM18.1215 24.3816C26.2072 24.3816 32.7618 26.1517 32.7618 28.3354V32.2891C32.7618 34.4728 26.2072 36.2429 18.1215 36.2429C10.0359 36.2429 3.48123 34.4728 3.48123 32.2891V28.3354C3.48123 26.1517 10.0359 24.3816 18.1215 24.3816Z" fill="#F08D1F"/>
<path d="M32.765 28.3356C32.765 30.5192 26.2103 32.2894 18.1247 32.2894C10.039 32.2894 3.48438 30.5192 3.48438 28.3356C3.48438 26.152 10.039 24.3818 18.1247 24.3818C26.2103 24.3818 32.765 26.152 32.765 28.3356Z" fill="#FFE05A"/>
<path fill-rule="evenodd" clip-rule="evenodd" d="M28.8568 32.3983C26.0511 33.1561 22.256 33.6071 18.1215 33.6071C13.987 33.6071 10.1919 33.1561 7.38621 32.3983C5.99287 32.022 4.76386 31.5492 3.85128 30.9665C2.98729 30.4148 2.08691 29.5501 2.08691 28.3354C2.08691 27.1206 2.98729 26.2559 3.85128 25.7042C4.76386 25.1215 5.99287 24.6487 7.38621 24.2724C10.1919 23.5146 13.987 23.0636 18.1215 23.0636C22.256 23.0636 26.0511 23.5146 28.8568 24.2724C30.2502 24.6487 31.4792 25.1215 32.3918 25.7042C33.2558 26.2559 34.1561 27.1206 34.1561 28.3354C34.1561 29.5501 33.2558 30.4148 32.3918 30.9665C31.4792 31.5492 30.2502 32.022 28.8568 32.3983ZM18.1215 32.2891C26.2072 32.2891 32.7618 30.519 32.7618 28.3354C32.7618 26.1517 26.2072 24.3816 18.1215 24.3816C10.0359 24.3816 3.48123 26.1517 3.48123 28.3354C3.48123 30.519 10.0359 32.2891 18.1215 32.2891Z" fill="#F08D1F"/>
<path fill-rule="evenodd" clip-rule="evenodd" d="M6.9745 30.9716C7.35954 30.9716 7.67166 31.2666 7.67166 31.6306V35.2549C7.67166 35.6188 7.35954 35.9138 6.9745 35.9138C6.58946 35.9138 6.27734 35.6188 6.27734 35.2549V31.6306C6.27734 31.2666 6.58946 30.9716 6.9745 30.9716ZM29.2835 30.9716C29.6686 30.9716 29.9807 31.2666 29.9807 31.6306V35.2549C29.9807 35.6188 29.6686 35.9138 29.2835 35.9138C28.8985 35.9138 28.5864 35.6188 28.5864 35.2549V31.6306C28.5864 31.2666 28.8985 30.9716 29.2835 30.9716ZM12.5518 32.2895C12.9368 32.2895 13.2489 32.5845 13.2489 32.9485V35.9138C13.2489 36.2778 12.9368 36.5728 12.5518 36.5728C12.1667 36.5728 11.8546 36.2778 11.8546 35.9138V32.9485C11.8546 32.5845 12.1667 32.2895 12.5518 32.2895ZM24.4034 32.2895C24.7885 32.2895 25.1006 32.5845 25.1006 32.9485V35.9138C25.1006 36.2778 24.7885 36.5728 24.4034 36.5728C24.0184 36.5728 23.7063 36.2778 23.7063 35.9138V32.9485C23.7063 32.5845 24.0184 32.2895 24.4034 32.2895ZM18.8262 32.2895C19.2112 32.2895 19.5233 32.5845 19.5233 32.9485V35.9138C19.5233 36.2778 19.2112 36.5728 18.8262 36.5728C18.4411 36.5728 18.129 36.2778 18.129 35.9138V32.9485C18.129 32.5845 18.4411 32.2895 18.8262 32.2895Z" fill="#F08D1F"/>
<path d="M35.5579 22.4045C35.5579 20.2209 29.0033 18.4507 20.9176 18.4507C12.832 18.4507 6.27734 20.2209 6.27734 22.4045V26.3583C6.27734 28.5419 12.832 30.3121 20.9176 30.3121C29.0033 30.3121 35.5579 28.5419 35.5579 26.3583V22.4045Z" fill="#FFC53B"/>
<path fill-rule="evenodd" clip-rule="evenodd" d="M35.1857 19.7738C36.0497 20.3255 36.9501 21.1902 36.9501 22.4049V26.3587C36.9501 27.5734 36.0497 28.4381 35.1857 28.9898C34.2731 29.5725 33.0441 30.0453 31.6508 30.4217C28.8451 31.1794 25.05 31.6304 20.9155 31.6304C16.781 31.6304 12.9859 31.1794 10.1802 30.4217C8.78682 30.0453 7.5578 29.5725 6.64522 28.9898C5.78124 28.4381 4.88086 27.5734 4.88086 26.3587V22.4049C4.88086 21.1902 5.78124 20.3255 6.64522 19.7738C7.5578 19.1911 8.78682 18.7183 10.1802 18.3419C12.9859 17.5842 16.781 17.1332 20.9155 17.1332C25.05 17.1332 28.8451 17.5842 31.6508 18.3419C33.0441 18.7183 34.2731 19.1911 35.1857 19.7738ZM20.9155 18.4511C29.0011 18.4511 35.5558 20.2213 35.5558 22.4049V26.3587C35.5558 28.5423 29.0011 30.3125 20.9155 30.3125C12.8298 30.3125 6.27517 28.5423 6.27517 26.3587V22.4049C6.27517 20.2213 12.8298 18.4511 20.9155 18.4511Z" fill="#F08D1F"/>
<path d="M35.5579 22.4045C35.5579 24.5881 29.0033 26.3583 20.9176 26.3583C12.832 26.3583 6.27734 24.5881 6.27734 22.4045C6.27734 20.2209 12.832 18.4507 20.9176 18.4507C29.0033 18.4507 35.5579 20.2209 35.5579 22.4045Z" fill="#FFE05A"/>
<path fill-rule="evenodd" clip-rule="evenodd" d="M31.6508 26.4679C28.845 27.2256 25.05 27.6766 20.9155 27.6766C16.781 27.6766 12.9859 27.2256 10.1802 26.4679C8.78682 26.0916 7.5578 25.6187 6.64522 25.036C5.78124 24.4843 4.88086 23.6196 4.88086 22.4049C4.88086 21.1902 5.78124 20.3255 6.64522 19.7738C7.5578 19.1911 8.78682 18.7183 10.1802 18.3419C12.9859 17.5842 16.781 17.1332 20.9155 17.1332C25.05 17.1332 28.845 17.5842 31.6508 18.3419C33.0441 18.7183 34.2731 19.1911 35.1857 19.7738C36.0497 20.3255 36.9501 21.1902 36.9501 22.4049C36.9501 23.6196 36.0497 24.4843 35.1857 25.036C34.2731 25.6187 33.0441 26.0916 31.6508 26.4679ZM20.9155 26.3587C29.0011 26.3587 35.5558 24.5885 35.5558 22.4049C35.5558 20.2213 29.0011 18.4511 20.9155 18.4511C12.8298 18.4511 6.27517 20.2213 6.27517 22.4049C6.27517 24.5885 12.8298 26.3587 20.9155 26.3587Z" fill="#F08D1F"/>
<path fill-rule="evenodd" clip-rule="evenodd" d="M9.76063 25.0404C10.1457 25.0404 10.4578 25.3355 10.4578 25.6994V29.3237C10.4578 29.6877 10.1457 29.9827 9.76063 29.9827C9.3756 29.9827 9.06348 29.6877 9.06348 29.3237V25.6994C9.06348 25.3355 9.3756 25.0404 9.76063 25.0404ZM32.0697 25.0404C32.4547 25.0404 32.7668 25.3355 32.7668 25.6994V29.3237C32.7668 29.6877 32.4547 29.9827 32.0697 29.9827C31.6846 29.9827 31.3725 29.6877 31.3725 29.3237V25.6994C31.3725 25.3355 31.6846 25.0404 32.0697 25.0404ZM15.3379 26.3584C15.7229 26.3584 16.035 26.6534 16.035 27.0173V29.9827C16.035 30.3466 15.7229 30.6416 15.3379 30.6416C14.9529 30.6416 14.6407 30.3466 14.6407 29.9827V27.0173C14.6407 26.6534 14.9529 26.3584 15.3379 26.3584ZM27.1896 26.3584C27.5746 26.3584 27.8867 26.6534 27.8867 27.0173V29.9827C27.8867 30.3466 27.5746 30.6416 27.1896 30.6416C26.8045 30.6416 26.4924 30.3466 26.4924 29.9827V27.0173C26.4924 26.6534 26.8045 26.3584 27.1896 26.3584ZM21.6123 26.3584C21.9973 26.3584 22.3095 26.6534 22.3095 27.0173V29.9827C22.3095 30.3466 21.9973 30.6416 21.6123 30.6416C21.2273 30.6416 20.9152 30.3466 20.9152 29.9827V27.0173C20.9152 26.6534 21.2273 26.3584 21.6123 26.3584Z" fill="#F08D1F"/>
<path d="M30.6771 17.1329C30.6771 14.9493 24.1224 13.1791 16.0368 13.1791C7.95115 13.1791 1.39648 14.9493 1.39648 17.1329V21.0867C1.39648 23.2703 7.95115 25.0405 16.0368 25.0405C24.1224 25.0405 30.6771 23.2703 30.6771 21.0867V17.1329Z" fill="#FFC53B"/>
<path fill-rule="evenodd" clip-rule="evenodd" d="M30.3049 14.502C31.1688 15.0536 32.0692 15.9183 32.0692 17.1331V21.0869C32.0692 22.3016 31.1688 23.1663 30.3049 23.718C29.3923 24.3007 28.1633 24.7735 26.7699 25.1499C23.9642 25.9076 20.1691 26.3586 16.0346 26.3586C11.9001 26.3586 8.10501 25.9076 5.2993 25.1499C3.90596 24.7735 2.67694 24.3007 1.76437 23.718C0.900378 23.1663 0 22.3016 0 21.0869V17.1331C0 15.9183 0.900378 15.0536 1.76437 14.502C2.67694 13.9192 3.90596 13.4464 5.2993 13.0701C8.10501 12.3124 11.9001 11.8614 16.0346 11.8614C20.1691 11.8614 23.9642 12.3124 26.7699 13.0701C28.1633 13.4464 29.3923 13.9192 30.3049 14.502ZM16.0346 13.1793C24.1202 13.1793 30.6749 14.9495 30.6749 17.1331V21.0869C30.6749 23.2705 24.1202 25.0407 16.0346 25.0407C7.94898 25.0407 1.39431 23.2705 1.39431 21.0869V17.1331C1.39431 14.9495 7.94898 13.1793 16.0346 13.1793Z" fill="#F08D1F"/>
<path d="M30.6771 17.1329C30.6771 19.3165 24.1224 21.0867 16.0368 21.0867C7.95115 21.0867 1.39648 19.3165 1.39648 17.1329C1.39648 14.9493 7.95115 13.1791 16.0368 13.1791C24.1224 13.1791 30.6771 14.9493 30.6771 17.1329Z" fill="#FFE05A"/>
<path fill-rule="evenodd" clip-rule="evenodd" d="M26.7699 21.1961C23.9641 21.9538 20.1691 22.4048 16.0346 22.4048C11.9001 22.4048 8.10501 21.9538 5.2993 21.1961C3.90596 20.8197 2.67694 20.3469 1.76437 19.7642C0.900378 19.2125 0 18.3478 0 17.1331C0 15.9183 0.900378 15.0536 1.76437 14.502C2.67694 13.9192 3.90596 13.4464 5.2993 13.0701C8.10501 12.3124 11.9001 11.8614 16.0346 11.8614C20.1691 11.8614 23.9641 12.3124 26.7699 13.0701C28.1633 13.4464 29.3923 13.9192 30.3049 14.502C31.1688 15.0536 32.0692 15.9183 32.0692 17.1331C32.0692 18.3478 31.1688 19.2125 30.3049 19.7642C29.3923 20.3469 28.1633 20.8197 26.7699 21.1961ZM16.0346 21.0869C24.1202 21.0869 30.6749 19.3167 30.6749 17.1331C30.6749 14.9495 24.1202 13.1793 16.0346 13.1793C7.94898 13.1793 1.39431 14.9495 1.39431 17.1331C1.39431 19.3167 7.94898 21.0869 16.0346 21.0869Z" fill="#F08D1F"/>
<path fill-rule="evenodd" clip-rule="evenodd" d="M4.87977 19.7689C5.26481 19.7689 5.57693 20.0639 5.57693 20.4278V24.0521C5.57693 24.4161 5.26481 24.7111 4.87977 24.7111C4.49473 24.7111 4.18262 24.4161 4.18262 24.0521V20.4278C4.18262 20.0639 4.49473 19.7689 4.87977 19.7689ZM27.1888 19.7689C27.5738 19.7689 27.886 20.0639 27.886 20.4278V24.0521C27.886 24.4161 27.5738 24.7111 27.1888 24.7111C26.8038 24.7111 26.4916 24.4161 26.4916 24.0521V20.4278C26.4916 20.0639 26.8038 19.7689 27.1888 19.7689ZM10.457 21.0868C10.8421 21.0868 11.1542 21.3818 11.1542 21.7458V24.7111C11.1542 25.0751 10.8421 25.3701 10.457 25.3701C10.072 25.3701 9.75987 25.0751 9.75987 24.7111V21.7458C9.75987 21.3818 10.072 21.0868 10.457 21.0868ZM22.3087 21.0868C22.6937 21.0868 23.0059 21.3818 23.0059 21.7458V24.7111C23.0059 25.0751 22.6937 25.3701 22.3087 25.3701C21.9237 25.3701 21.6115 25.0751 21.6115 24.7111V21.7458C21.6115 21.3818 21.9237 21.0868 22.3087 21.0868ZM16.7314 21.0868C17.1165 21.0868 17.4286 21.3818 17.4286 21.7458V24.7111C17.4286 25.0751 17.1165 25.3701 16.7314 25.3701C16.3464 25.3701 16.0343 25.0751 16.0343 24.7111V21.7458C16.0343 21.3818 16.3464 21.0868 16.7314 21.0868Z" fill="#F08D1F"/>
<path d="M36.9476 11.2024C36.9476 9.01881 30.3929 7.24863 22.3073 7.24863C14.2217 7.24863 7.66699 9.01881 7.66699 11.2024V15.1562C7.66699 17.3398 14.2217 19.11 22.3073 19.11C30.3929 19.11 36.9476 17.3398 36.9476 15.1562V11.2024Z" fill="#FFC53B"/>
<path fill-rule="evenodd" clip-rule="evenodd" d="M36.5822 8.57106C37.4462 9.12274 38.3466 9.98744 38.3466 11.2022V15.156C38.3466 16.3707 37.4462 17.2354 36.5822 17.7871C35.6696 18.3698 34.4406 18.8426 33.0473 19.219C30.2416 19.9767 26.4464 20.4277 22.312 20.4277C18.1775 20.4277 14.3823 19.9767 11.5766 19.219C10.1833 18.8426 8.95429 18.3698 8.04171 17.7871C7.17772 17.2354 6.27734 16.3707 6.27734 15.156V11.2022C6.27734 9.98744 7.17772 9.12274 8.04171 8.57106C8.95429 7.98833 10.1833 7.51553 11.5766 7.13919C14.3823 6.38145 18.1775 5.93045 22.312 5.93045C26.4464 5.93045 30.2416 6.38145 33.0473 7.13919C34.4406 7.51553 35.6696 7.98833 36.5822 8.57106ZM22.312 7.24838C30.3976 7.24838 36.9523 9.01856 36.9523 11.2022V15.156C36.9523 17.3396 30.3976 19.1098 22.312 19.1098C14.2263 19.1098 7.67166 17.3396 7.67166 15.156V11.2022C7.67166 9.01856 14.2263 7.24838 22.312 7.24838Z" fill="#F08D1F"/>
<path d="M36.9476 11.2024C36.9476 13.386 30.3929 15.1562 22.3073 15.1562C14.2217 15.1562 7.66699 13.386 7.66699 11.2024C7.66699 9.01881 14.2217 7.24863 22.3073 7.24863C30.3929 7.24863 36.9476 9.01881 36.9476 11.2024Z" fill="#FFE05A"/>
<path fill-rule="evenodd" clip-rule="evenodd" d="M33.0473 15.2652C30.2415 16.0229 26.4464 16.4739 22.312 16.4739C18.1775 16.4739 14.3823 16.0229 11.5766 15.2652C10.1833 14.8888 8.95429 14.416 8.04171 13.8333C7.17772 13.2816 6.27734 12.4169 6.27734 11.2022C6.27734 9.98744 7.17772 9.12274 8.04171 8.57106C8.95429 7.98833 10.1833 7.51553 11.5766 7.13919C14.3823 6.38145 18.1775 5.93045 22.312 5.93045C26.4464 5.93045 30.2415 6.38145 33.0473 7.13919C34.4406 7.51553 35.6696 7.98833 36.5822 8.57106C37.4462 9.12274 38.3466 9.98744 38.3466 11.2022C38.3466 12.4169 37.4462 13.2816 36.5822 13.8333C35.6696 14.416 34.4406 14.8888 33.0473 15.2652ZM22.312 15.156C30.3976 15.156 36.9523 13.3858 36.9523 11.2022C36.9523 9.01856 30.3976 7.24838 22.312 7.24838C14.2263 7.24838 7.67166 9.01856 7.67166 11.2022C7.67166 13.3858 14.2263 15.156 22.312 15.156Z" fill="#F08D1F"/>
<path fill-rule="evenodd" clip-rule="evenodd" d="M11.1503 13.8384C11.5353 13.8384 11.8474 14.1334 11.8474 14.4974V18.1217C11.8474 18.4856 11.5353 18.7807 11.1503 18.7807C10.7652 18.7807 10.4531 18.4856 10.4531 18.1217V14.4974C10.4531 14.1334 10.7652 13.8384 11.1503 13.8384ZM33.4593 13.8384C33.8443 13.8384 34.1565 14.1334 34.1565 14.4974V18.1217C34.1565 18.4856 33.8443 18.7807 33.4593 18.7807C33.0743 18.7807 32.7621 18.4856 32.7621 18.1217V14.4974C32.7621 14.1334 33.0743 13.8384 33.4593 13.8384ZM16.7275 15.1563C17.1126 15.1563 17.4247 15.4514 17.4247 15.8153V18.7807C17.4247 19.1446 17.1126 19.4396 16.7275 19.4396C16.3425 19.4396 16.0304 19.1446 16.0304 18.7807V15.8153C16.0304 15.4514 16.3425 15.1563 16.7275 15.1563ZM28.5792 15.1563C28.9642 15.1563 29.2764 15.4514 29.2764 15.8153V18.7807C29.2764 19.1446 28.9642 19.4396 28.5792 19.4396C28.1942 19.4396 27.8821 19.1446 27.8821 18.7807V15.8153C27.8821 15.4514 28.1942 15.1563 28.5792 15.1563ZM23.0019 15.1563C23.387 15.1563 23.6991 15.4514 23.6991 15.8153V18.7807C23.6991 19.1446 23.387 19.4396 23.0019 19.4396C22.6169 19.4396 22.3048 19.1446 22.3048 18.7807V15.8153C22.3048 15.4514 22.6169 15.1563 23.0019 15.1563Z" fill="#F08D1F"/>
<path d="M32.765 5.27176C32.765 3.08814 26.2103 1.31796 18.1247 1.31796C10.039 1.31796 3.48438 3.08814 3.48438 5.27176V9.22555C3.48438 11.4092 10.039 13.1793 18.1247 13.1793C26.2103 13.1793 32.765 11.4092 32.765 9.22555V5.27176Z" fill="#FFC53B"/>
<path fill-rule="evenodd" clip-rule="evenodd" d="M32.3918 2.64061C33.2558 3.19229 34.1561 4.05699 34.1561 5.27173V9.22552C34.1561 10.4403 33.2558 11.305 32.3918 11.8566C31.4792 12.4394 30.2502 12.9122 28.8568 13.2885C26.0511 14.0463 22.256 14.4972 18.1215 14.4972C13.987 14.4972 10.1919 14.0463 7.38621 13.2885C5.99287 12.9122 4.76386 12.4394 3.85128 11.8566C2.98729 11.305 2.08691 10.4403 2.08691 9.22552V5.27173C2.08691 4.05699 2.98729 3.19229 3.85128 2.64061C4.76386 2.05789 5.99287 1.58508 7.38621 1.20874C10.1919 0.450997 13.987 0 18.1215 0C22.256 0 26.0511 0.450997 28.8568 1.20874C30.2502 1.58508 31.4792 2.05789 32.3918 2.64061ZM18.1215 1.31793C26.2072 1.31793 32.7618 3.08811 32.7618 5.27173V9.22552C32.7618 11.4091 26.2072 13.1793 18.1215 13.1793C10.0359 13.1793 3.48123 11.4091 3.48123 9.22552V5.27173C3.48123 3.08811 10.0359 1.31793 18.1215 1.31793Z" fill="#F08D1F"/>
<path d="M32.765 5.27176C32.765 7.45537 26.2103 9.22555 18.1247 9.22555C10.039 9.22555 3.48438 7.45537 3.48438 5.27176C3.48438 3.08814 10.039 1.31796 18.1247 1.31796C26.2103 1.31796 32.765 3.08814 32.765 5.27176Z" fill="#FFD952"/>
<path fill-rule="evenodd" clip-rule="evenodd" d="M28.8568 9.33471C26.0511 10.0925 22.256 10.5435 18.1215 10.5435C13.987 10.5435 10.1919 10.0925 7.38621 9.33471C5.99287 8.95837 4.76386 8.48557 3.85128 7.90284C2.98729 7.35116 2.08691 6.48646 2.08691 5.27173C2.08691 4.05699 2.98729 3.19229 3.85128 2.64061C4.76386 2.05789 5.99287 1.58508 7.38621 1.20874C10.1919 0.450997 13.987 0 18.1215 0C22.256 0 26.0511 0.450997 28.8568 1.20874C30.2502 1.58508 31.4792 2.05789 32.3918 2.64061C33.2558 3.19229 34.1561 4.05699 34.1561 5.27173C34.1561 6.48646 33.2558 7.35116 32.3918 7.90284C31.4792 8.48557 30.2502 8.95837 28.8568 9.33471ZM18.1215 9.22552C26.2072 9.22552 32.7618 7.45534 32.7618 5.27173C32.7618 3.08811 26.2072 1.31793 18.1215 1.31793C10.0359 1.31793 3.48123 3.08811 3.48123 5.27173C3.48123 7.45534 10.0359 9.22552 18.1215 9.22552Z" fill="#F08D1F"/>
<path d="M26.4945 4.94206C26.4945 6.21584 22.7489 7.24844 18.1286 7.24844C13.5082 7.24844 9.7627 6.21584 9.7627 4.94206C9.7627 3.66828 13.5082 2.63568 18.1286 2.63568C22.7489 2.63568 26.4945 3.66828 26.4945 4.94206Z" fill="#FFE05A"/>
<path fill-rule="evenodd" clip-rule="evenodd" d="M6.9745 7.90726C7.35954 7.90726 7.67166 8.20227 7.67166 8.56622V12.1905C7.67166 12.5545 7.35954 12.8495 6.9745 12.8495C6.58946 12.8495 6.27734 12.5545 6.27734 12.1905V8.56622C6.27734 8.20227 6.58946 7.90726 6.9745 7.90726ZM29.2835 7.90726C29.6686 7.90726 29.9807 8.20227 29.9807 8.56622V12.1905C29.9807 12.5545 29.6686 12.8495 29.2835 12.8495C28.8985 12.8495 28.5864 12.5545 28.5864 12.1905V8.56622C28.5864 8.20227 28.8985 7.90726 29.2835 7.90726ZM12.5518 9.22519C12.9368 9.22519 13.2489 9.52021 13.2489 9.88415V12.8495C13.2489 13.2134 12.9368 13.5085 12.5518 13.5085C12.1667 13.5085 11.8546 13.2134 11.8546 12.8495V9.88415C11.8546 9.52021 12.1667 9.22519 12.5518 9.22519ZM24.4034 9.22519C24.7885 9.22519 25.1006 9.52021 25.1006 9.88415V12.8495C25.1006 13.2134 24.7885 13.5085 24.4034 13.5085C24.0184 13.5085 23.7063 13.2134 23.7063 12.8495V9.88415C23.7063 9.52021 24.0184 9.22519 24.4034 9.22519ZM18.8262 9.22519C19.2112 9.22519 19.5233 9.52021 19.5233 9.88415V12.8495C19.5233 13.2134 19.2112 13.5085 18.8262 13.5085C18.4411 13.5085 18.129 13.2134 18.129 12.8495V9.88415C18.129 9.52021 18.4411 9.22519 18.8262 9.22519Z" fill="#F08D1F"/>
<path fill-rule="evenodd" clip-rule="evenodd" d="M4.18153 4.61295C4.56657 4.61295 4.87869 4.90797 4.87869 5.27191C4.87869 5.36654 4.96751 5.62834 5.59077 5.99493C6.17687 6.33957 7.07139 6.67412 8.23864 6.96447C10.5627 7.54251 13.8118 7.90777 17.4275 7.90777C17.8126 7.90777 18.1247 8.20279 18.1247 8.56674C18.1247 8.93069 17.8126 9.2257 17.4275 9.2257C13.7277 9.2257 10.3537 8.85339 7.88378 8.23897C6.65393 7.93308 5.60861 7.5576 4.85415 7.11392C4.13691 6.69212 3.48438 6.08712 3.48438 5.27191C3.48438 4.90797 3.79649 4.61295 4.18153 4.61295Z" fill="#FFF2B2"/>
<path fill-rule="evenodd" clip-rule="evenodd" d="M36.9473 31.6303C36.9473 31.2663 37.2594 30.9713 37.6444 30.9713H43.2217C43.6067 30.9713 43.9188 31.2663 43.9188 31.6303C43.9188 31.9942 43.6067 32.2892 43.2217 32.2892H37.6444C37.2594 32.2892 36.9473 31.9942 36.9473 31.6303ZM36.9473 28.9944C36.9473 28.6305 37.2594 28.3354 37.6444 28.3354H43.2217C43.6067 28.3354 43.9188 28.6305 43.9188 28.9944C43.9188 29.3584 43.6067 29.6534 43.2217 29.6534H37.6444C37.2594 29.6534 36.9473 29.3584 36.9473 28.9944Z" fill="#F08D1F"/>
<ellipse cx="44.8733" cy="28.5235" rx="15.594" ry="14.7398" fill="#FFE05A"/>
<path d="M44.8724 16.7745C51.7373 16.7745 57.3024 22.0348 57.3024 28.5236C57.3024 35.0125 51.7373 40.2727 44.8724 40.2727C38.0075 40.2727 32.4424 35.0125 32.4424 28.5236C32.4424 22.0348 38.0075 16.7745 44.8724 16.7745Z" fill="#FFC53B"/>
<path d="M53.1981 20.0439C58.0587 24.6382 58.0587 32.087 53.1981 36.6813C48.3375 41.2757 40.4569 41.2757 35.5963 36.6813C35.5908 36.5721 39.8682 32.4364 44.7287 27.8421C49.5893 23.2478 53.3376 20.0237 53.1981 20.0439Z" fill="#FAA92D"/>
<path d="M37.2226 24.2489C36.5298 24.2489 36.2446 24.159 35.3345 24.2104C35.1036 24.2232 34.8455 24.3773 34.7776 24.7111C34.7368 24.9422 34.9406 25.3274 35.3345 25.3274H35.5926C35.7556 25.3274 35.8778 25.4429 35.8778 25.597C35.9322 26.7782 35.9593 27.6641 35.9593 28.627C35.9593 29.5386 35.9322 30.3603 35.8778 31.503C35.8778 31.657 35.7556 31.7726 35.5926 31.7854H35.3345C35.0628 31.7983 34.8455 32.0165 34.8455 32.299C34.8455 32.6456 35.0628 32.9153 35.4568 32.9153C36.2038 32.9281 36.6113 32.8639 37.209 32.8639C37.9289 32.8639 38.6081 32.9538 39.165 32.9538C41.8953 32.9538 42.9412 31.0022 42.9412 28.5372C42.9412 26.1234 41.6236 24.2104 39.3552 24.2104C38.8254 24.2104 37.6573 24.2489 37.2226 24.2489ZM37.8474 25.2632H38.9884C40.4826 25.2632 41.284 26.714 41.284 28.5372C41.284 30.4117 40.4418 31.7983 38.9477 31.7983C38.4043 31.8111 38.0376 31.8111 37.6708 31.7726C37.5078 31.7726 37.3584 31.657 37.3448 31.4003C37.2905 30.6171 37.2905 29.4744 37.2905 28.6014C37.2905 27.9466 37.3177 26.4316 37.3856 25.6099C37.3856 25.4301 37.5758 25.3017 37.8474 25.2632ZM48.7956 24.2746H48.6462C47.4916 24.2746 45.9838 24.2489 45.0466 24.2104C44.8836 24.2104 44.7613 24.326 44.7613 24.48C44.7885 24.8138 44.8157 25.6099 44.8157 25.9437C44.8157 26.2775 44.7885 26.8552 44.7613 27.1249C44.7613 27.3816 45.0873 27.5485 45.3318 27.5485C45.5492 27.5485 45.9567 27.4073 45.9567 27.1249C45.9295 26.8424 45.9023 25.9822 45.9431 25.6869C45.9703 25.5071 46.0382 25.3916 46.2419 25.3916L47.5323 25.3531C47.7633 25.4044 47.8176 25.5842 47.8312 25.7768C47.8991 27.2532 47.8991 28.8966 47.8448 30.9124C47.8176 31.182 47.8583 31.8111 47.478 31.8111H46.5815C46.2555 31.8111 46.1333 32.1192 46.1333 32.376C46.1333 32.6328 46.2827 32.9153 46.5815 32.9153C46.9211 32.9153 48.0893 32.8639 48.5918 32.8639C48.9993 32.8639 50.1947 32.9024 50.5343 32.9153C50.7923 32.9153 50.9418 32.6071 50.9418 32.3375C50.9418 32.1321 50.8059 31.8111 50.5343 31.8111H49.5427C49.3797 31.8111 49.2574 31.6827 49.2574 31.5286C49.2031 30.7198 49.1759 29.9494 49.1759 29.0892C49.1759 27.9209 49.2167 26.8681 49.2574 25.674C49.2574 25.5328 49.3661 25.3788 49.5019 25.3531L50.8331 25.3916C51.0368 25.3916 51.1048 25.5071 51.1319 25.6869C51.1727 25.9822 51.1455 26.8424 51.1183 27.1249C51.1183 27.4073 51.5258 27.5485 51.7432 27.5485C51.9877 27.5485 52.3137 27.3816 52.3137 27.1249C52.2865 26.8552 52.2593 26.2775 52.2593 25.9437C52.2593 25.6099 52.2865 24.8138 52.3137 24.48C52.3137 24.326 52.1914 24.2104 52.0284 24.2104C51.1319 24.2489 49.8823 24.2746 48.7956 24.2746Z" fill="#F08D1F"/>
<path d="M38.3691 24.836C37.6763 24.836 37.3911 24.7461 36.481 24.7975C36.2501 24.8103 35.992 24.9644 35.9241 25.2982C35.8833 25.5293 36.0871 25.9145 36.481 25.9145H36.7391C36.9021 25.9145 37.0243 26.03 37.0243 26.1841C37.0787 27.3653 37.1058 28.2512 37.1058 29.2141C37.1058 30.1257 37.0787 30.9474 37.0243 32.09C37.0243 32.2441 36.9021 32.3597 36.7391 32.3725H36.481C36.2093 32.3853 35.992 32.6036 35.992 32.8861C35.992 33.2327 36.2093 33.5023 36.6032 33.5023C37.3503 33.5152 37.7578 33.451 38.3555 33.451C39.0754 33.451 39.7546 33.5409 40.3115 33.5409C43.0417 33.5409 44.0877 31.5893 44.0877 29.1242C44.0877 26.7105 42.7701 24.7975 40.5017 24.7975C39.9719 24.7975 38.8037 24.836 38.3691 24.836ZM38.9939 25.8503H40.1349C41.6291 25.8503 42.4305 27.3011 42.4305 29.1242C42.4305 30.9987 41.5883 32.3853 40.0942 32.3853C39.5508 32.3982 39.1841 32.3982 38.8173 32.3597C38.6543 32.3597 38.5049 32.2441 38.4913 31.9873C38.437 31.2041 38.437 30.0615 38.437 29.1884C38.437 28.5336 38.4642 27.0186 38.5321 26.1969C38.5321 26.0172 38.7222 25.8888 38.9939 25.8503ZM49.9421 24.8617H49.7927C48.6381 24.8617 47.1303 24.836 46.1931 24.7975C46.0301 24.7975 45.9078 24.913 45.9078 25.0671C45.935 25.4009 45.9622 26.1969 45.9622 26.5307C45.9622 26.8646 45.935 27.4423 45.9078 27.7119C45.9078 27.9687 46.2338 28.1356 46.4783 28.1356C46.6957 28.1356 47.1032 27.9944 47.1032 27.7119C47.076 27.4295 47.0488 26.5693 47.0896 26.274C47.1167 26.0942 47.1847 25.9787 47.3884 25.9787L48.6788 25.9401C48.9097 25.9915 48.9641 26.1712 48.9777 26.3638C49.0456 27.8403 49.0456 29.4837 48.9912 31.4994C48.9641 31.7691 49.0048 32.3982 48.6245 32.3982H47.728C47.402 32.3982 47.2797 32.7063 47.2797 32.9631C47.2797 33.2199 47.4292 33.5023 47.728 33.5023C48.0676 33.5023 49.2357 33.451 49.7383 33.451C50.1458 33.451 51.3412 33.4895 51.6807 33.5023C51.9388 33.5023 52.0882 33.1942 52.0882 32.9246C52.0882 32.7192 51.9524 32.3982 51.6807 32.3982H50.6892C50.5262 32.3982 50.4039 32.2698 50.4039 32.1157C50.3496 31.3069 50.3224 30.5365 50.3224 29.6763C50.3224 28.5079 50.3632 27.4551 50.4039 26.2611C50.4039 26.1199 50.5126 25.9658 50.6484 25.9401L51.9796 25.9787C52.1833 25.9787 52.2512 26.0942 52.2784 26.274C52.3192 26.5693 52.292 27.4295 52.2648 27.7119C52.2648 27.9944 52.6723 28.1356 52.8897 28.1356C53.1342 28.1356 53.4602 27.9687 53.4602 27.7119C53.433 27.4423 53.4058 26.8646 53.4058 26.5307C53.4058 26.1969 53.433 25.4009 53.4602 25.0671C53.4602 24.913 53.3379 24.7975 53.1749 24.7975C52.2784 24.836 51.0287 24.8617 49.9421 24.8617Z" fill="#FBEB9F"/>
</svg>