<svg xmlns="http://www.w3.org/2000/svg" width="26" height="41" viewBox="0 0 26 41" fill="none">
<path d="M24.4197 38.1115L23.5423 37.899L22.458 37.6002C22.0705 37.474 21.6417 37.358 21.2004 37.1957C20.9659 37.1169 20.725 37.0316 20.4776 36.9398C20.4701 36.9117 20.465 36.8759 20.4574 36.8345C20.4499 36.7931 20.4273 36.7221 20.4167 36.6558C20.4527 36.6463 20.4868 36.6305 20.5174 36.6093C20.6857 36.4877 20.8327 36.339 20.9522 36.1691C21.0808 35.9945 21.1861 35.8039 21.2655 35.602C21.5456 34.787 21.5997 33.9111 21.4221 33.0678C21.4132 33.0347 21.4129 33.0002 21.4073 32.9663C21.1666 32.0735 20.6867 31.2636 20.0195 30.6246C19.8251 30.4199 19.6574 30.2425 19.5158 30.0999C19.3898 29.9583 19.2456 29.8341 19.0871 29.7304C19.0607 29.7137 19.0291 29.7074 18.9984 29.7126C18.8811 29.737 18.6767 29.9975 18.5259 30.3986C18.4654 30.5606 18.4195 30.7277 18.3889 30.8979C18.2664 31.7247 18.2905 32.5667 18.4603 33.3851C18.4693 33.419 18.4734 33.4542 18.4809 33.4885C18.6907 34.2791 19.0469 35.0231 19.531 35.6818C19.645 35.8434 19.7479 35.9903 19.8418 36.1166C19.9688 36.3194 20.134 36.4956 20.3281 36.6353L20.3324 36.6714C20.3402 36.7366 20.3497 36.7952 20.3535 36.8491L20.3578 36.8949C19.6952 36.6459 18.9924 36.3519 18.2631 36.0056C17.5738 35.6796 16.8598 35.3044 16.1373 34.8775C16.1357 34.8549 16.1348 34.8285 16.1335 34.8005C16.1318 34.7478 16.1237 34.6844 16.1184 34.6185C16.1553 34.6154 16.1913 34.6057 16.2248 34.5899C16.4089 34.4941 16.5757 34.3681 16.7184 34.2172C16.8711 34.063 17.0029 33.8893 17.1106 33.7007C17.5047 32.9348 17.6841 32.0761 17.6297 31.2161C17.6304 31.1823 17.63 31.1478 17.6296 31.1134C17.5196 30.195 17.1607 29.3245 16.5918 28.5961C16.4293 28.3651 16.2883 28.1655 16.1675 28.0013C16.0629 27.8417 15.9379 27.6966 15.7956 27.5697C15.7721 27.5491 15.7417 27.5383 15.7105 27.5394C15.5913 27.5466 15.351 27.7751 15.1448 28.1512C15.0619 28.303 14.9925 28.4618 14.9376 28.6259C14.6984 29.4257 14.6015 30.2615 14.6513 31.0949C14.6528 31.13 14.6544 31.1659 14.6564 31.1999C14.7507 32.0123 14.9965 32.7998 15.381 33.5213C15.4708 33.6983 15.5514 33.8574 15.6267 33.9967C15.7231 34.2157 15.8612 34.414 16.033 34.5803L16.0322 34.6169C16.0304 34.6829 16.0312 34.742 16.027 34.7955L16.0303 34.8079C15.6882 34.6044 15.3447 34.3869 14.9998 34.1553C13.9921 33.479 13.0384 32.7252 12.1473 31.9006L12.1534 31.8475C12.1606 31.7951 12.1631 31.7316 12.1694 31.6661C12.2064 31.6678 12.2435 31.663 12.2788 31.6517C12.476 31.5874 12.661 31.4904 12.8262 31.3647C13.0018 31.2378 13.1601 31.0883 13.2969 30.9201C13.8109 30.2295 14.1285 29.4121 14.2158 28.5549C14.2218 28.5214 14.2277 28.4871 14.2329 28.4538C14.2743 27.5298 14.0627 26.612 13.621 25.7999C13.4982 25.5459 13.3923 25.3253 13.3002 25.1463C13.223 24.973 13.1234 24.8106 13.0039 24.6633C12.9841 24.6391 12.9558 24.6233 12.9248 24.619C12.6502 24.7025 12.4156 24.8841 12.2656 25.1292C12.1589 25.2641 12.0643 25.4081 11.9829 25.5596C11.6155 26.31 11.3831 27.1196 11.2965 27.9509C11.2926 27.9857 11.288 28.0215 11.2848 28.056C11.2448 28.8733 11.3586 29.6909 11.6202 30.4661C11.6796 30.6548 11.7332 30.8255 11.7846 30.9747C11.8443 31.2064 11.9483 31.4243 12.0907 31.6163L12.0843 31.6517C12.0732 31.7096 12.0646 31.7633 12.0536 31.8115C11.9506 31.7151 11.8475 31.6173 11.7443 31.518C11.2253 31.0089 10.7214 30.4639 10.2368 29.8951C9.75213 29.3263 9.30155 28.7129 8.86722 28.0809C8.85382 28.0606 8.84021 28.0394 8.82681 28.0191L8.84221 27.9742C8.86002 27.9251 8.87595 27.8624 8.89434 27.799C8.93025 27.8084 8.96756 27.8113 9.00448 27.8075C9.21078 27.7847 9.41185 27.7277 9.59946 27.6388C9.79712 27.5502 9.98238 27.4361 10.1505 27.2993C10.7927 26.7279 11.2682 25.9927 11.5264 25.1719C11.5391 25.1402 11.5518 25.1084 11.5629 25.0735C11.7913 24.1776 11.7708 23.2361 11.5037 22.3509C11.4348 22.077 11.3757 21.8395 11.3221 21.6457C11.2817 21.4604 11.2174 21.2811 11.1307 21.1124C11.1165 21.0848 11.0922 21.0638 11.0628 21.0536C10.7771 21.0789 10.5106 21.2088 10.3144 21.4186C10.1823 21.529 10.0602 21.6507 9.94933 21.7824C9.43721 22.4422 9.04516 23.1872 8.79117 23.9834C8.77972 24.0166 8.76848 24.0506 8.75719 24.0811C8.55189 24.8729 8.49718 25.6964 8.59594 26.5086C8.61501 26.7054 8.63357 26.8838 8.6499 27.0407C8.66126 27.2797 8.71863 27.5143 8.81883 27.7315L8.80491 27.7654C8.78402 27.8162 8.76598 27.8645 8.7464 27.9069C7.93029 26.6717 7.24033 25.3572 6.68695 23.9835C6.60106 23.7638 6.51668 23.5399 6.43382 23.3117L6.5062 23.1824C6.53035 23.1405 6.55575 23.0867 6.5834 23.0314C6.61356 23.0459 6.64592 23.0551 6.67915 23.0588C6.87028 23.0733 7.06247 23.0555 7.24771 23.0062C7.44342 22.9594 7.63213 22.8869 7.80896 22.7907C8.49029 22.381 9.04787 21.7936 9.42224 21.0912L9.47224 21.0105C9.83168 20.2361 9.97295 19.378 9.88075 18.529C9.86472 18.2675 9.8516 18.0433 9.83562 17.858C9.83051 17.6827 9.80243 17.5089 9.75207 17.3409C9.74348 17.3133 9.72491 17.2898 9.7 17.2752C9.43649 17.2479 9.17219 17.3189 8.95764 17.4746C8.81897 17.5531 8.6876 17.6438 8.56513 17.7458C7.98825 18.2572 7.50601 18.8666 7.14062 19.546C7.12452 19.574 7.10884 19.6024 7.09359 19.6313C6.77286 20.315 6.58313 21.053 6.53427 21.8069C6.51829 21.9884 6.50492 22.1532 6.49621 22.2991C6.46593 22.518 6.47807 22.7406 6.53197 22.9549L6.5138 22.9828C6.48048 23.0334 6.45166 23.081 6.42251 23.1207L6.38528 23.1732C5.96492 21.9857 5.63388 20.7684 5.39493 19.5313C5.31368 19.1131 5.2439 18.6948 5.18557 18.2763L5.27352 18.1854C5.30714 18.1524 5.34163 18.1095 5.3842 18.067C5.40969 18.0885 5.43872 18.1052 5.46998 18.1166C5.64426 18.1783 5.82763 18.2102 6.01244 18.211C6.2052 18.2165 6.39785 18.1966 6.58545 18.1518C7.32228 17.9429 7.98875 17.5376 8.51382 16.979L8.58029 16.9169C9.10855 16.2863 9.45464 15.523 9.58113 14.7095C9.63184 14.4628 9.67567 14.2499 9.70729 14.074C9.74623 13.9097 9.7635 13.7409 9.75865 13.572C9.75767 13.5443 9.74619 13.5179 9.72653 13.4983C9.4875 13.4084 9.22385 13.4095 8.98561 13.5015C8.83677 13.5397 8.69164 13.5911 8.55196 13.6553C7.88687 13.9866 7.28527 14.4329 6.77479 14.9735L6.70986 15.0415C6.24011 15.5961 5.8785 16.2342 5.64384 16.9226C5.58389 17.0884 5.52947 17.2386 5.4847 17.372C5.40157 17.5683 5.35702 17.7788 5.35352 17.992L5.32923 18.0136C5.28577 18.0527 5.24787 18.0895 5.20984 18.1192L5.1699 18.1583C5.03052 17.1297 4.95609 16.0933 4.94705 15.0553C4.94277 14.5337 4.95561 14.0199 4.98325 13.5119L5.02595 13.4765C5.06233 13.4473 5.10287 13.4071 5.14715 13.3678C5.17029 13.3917 5.1974 13.4114 5.22727 13.426C5.39429 13.505 5.57335 13.5554 5.75699 13.5751C5.94828 13.6004 6.14205 13.6001 6.33327 13.5745C7.08811 13.4422 7.79295 13.1071 8.37259 12.6049L8.44623 12.5496C9.03654 11.9766 9.45923 11.2528 9.66857 10.4564C9.74405 10.2164 9.80973 10.0091 9.85675 9.83792C9.91228 9.67823 9.94686 9.51199 9.95961 9.34337C9.96277 9.31577 9.95533 9.288 9.93882 9.26568C9.7096 9.15014 9.44586 9.12351 9.19824 9.19089C9.04615 9.21371 8.8964 9.25008 8.75077 9.29959C8.05521 9.56167 7.41123 9.94463 6.84843 10.4309L6.77634 10.4919C6.25189 10.9964 5.82697 11.5954 5.52379 12.2575C5.44694 12.4163 5.37815 12.5624 5.31979 12.6879C5.21735 12.8742 5.15195 13.0786 5.12719 13.2899L5.10059 13.3094C5.06047 13.3379 5.02695 13.3646 4.99172 13.3883C5.04124 12.5381 5.13419 11.6911 5.27022 10.8505C5.40786 10.0002 5.58384 9.18741 5.78458 8.41762L5.89612 8.36196C5.93311 8.34493 5.97329 8.31996 6.02194 8.2936C6.03673 8.3189 6.05591 8.34135 6.07858 8.35989C6.20346 8.46162 6.34442 8.54173 6.49565 8.59691C6.65352 8.65767 6.81871 8.6973 6.98693 8.71475C7.65747 8.75715 8.32691 8.61619 8.92371 8.30692L8.99649 8.27496C9.61732 7.90751 10.126 7.37684 10.4674 6.74043C10.5804 6.55148 10.6789 6.38769 10.7565 6.25165C10.8368 6.12697 10.9004 5.99223 10.9455 5.85092C10.9529 5.82767 10.9512 5.80249 10.9408 5.78042C10.8982 5.69708 10.6599 5.59631 10.3265 5.56628C10.1921 5.5543 10.0569 5.55444 9.92255 5.56671C9.27576 5.64632 8.64809 5.83985 8.06852 6.13837L7.99518 6.17491C7.44317 6.4974 6.95667 6.92115 6.56112 7.42402C6.46199 7.53925 6.3744 7.65138 6.29488 7.75071C6.16896 7.88866 6.07095 8.04979 6.00628 8.22516L5.97906 8.23247C5.93134 8.25238 5.88961 8.27156 5.84986 8.2849L5.80147 8.30233C5.90506 7.91185 6.01417 7.53317 6.12879 7.16629C6.34492 6.47387 6.57883 5.82806 6.81665 5.22993C7.02038 5.20458 7.21284 5.12216 7.37193 4.99215C7.47522 4.9266 7.58777 4.8494 7.70959 4.76056C8.21213 4.40756 8.62369 3.93986 8.91031 3.39606L8.95599 3.32886C9.21943 2.75121 9.41809 2.14605 9.54831 1.52448C9.57267 1.39835 9.58753 1.27056 9.59279 1.1422C9.60612 0.82853 9.55038 0.606955 9.47253 0.560536C9.45065 0.548406 9.42514 0.544567 9.40067 0.549719C9.24977 0.577229 9.10304 0.624097 8.96409 0.689166C8.81597 0.750223 8.64104 0.830003 8.44567 0.925906C7.80556 1.20235 7.27762 1.68767 6.94769 2.30293C6.93733 2.32698 6.92779 2.3508 6.91847 2.37546C6.64456 2.97323 6.50064 3.62255 6.49626 4.28032C6.49997 4.44112 6.52341 4.60086 6.56605 4.75593C6.60183 4.90234 6.66324 5.04122 6.74742 5.16614C6.7558 5.17691 6.76476 5.18722 6.77425 5.19702C6.52669 5.79512 6.2852 6.44562 6.05691 7.14219C5.93009 7.53065 5.80912 7.93437 5.69581 8.35021L5.68644 8.33501C5.66367 8.29949 5.64288 8.25812 5.6185 8.21328C5.61629 8.20501 5.61386 8.19592 5.60483 8.1886C5.66342 8.01129 5.68754 7.82436 5.67587 7.63794C5.6773 7.5144 5.67551 7.37224 5.67377 7.22033C5.68103 6.5806 5.56802 5.94523 5.34063 5.34741C5.33356 5.32096 5.31823 5.29673 5.30643 5.27244C5.04013 4.67651 4.67096 4.13236 4.21589 3.66503C4.11888 3.5714 4.01366 3.48669 3.9015 3.41195C3.62285 3.22634 3.37389 3.15502 3.28879 3.19383C3.26682 3.20443 3.24967 3.22296 3.24078 3.24571C3.18781 3.3842 3.15314 3.52903 3.13767 3.67653C3.11296 3.83201 3.08758 4.02134 3.05773 4.24022C2.92659 4.95088 2.99187 5.68395 3.24653 6.36011C3.25811 6.38358 3.27074 6.40765 3.28315 6.43089C3.55513 7.04576 3.98859 7.57511 4.53728 7.96245C4.67927 8.05427 4.83276 8.12683 4.99377 8.17824C5.14711 8.23106 5.30817 8.25785 5.47031 8.25752C5.49904 8.25683 5.52745 8.25129 5.55434 8.24115C5.57443 8.2898 5.59221 8.33641 5.61003 8.37326C5.62784 8.41011 5.64699 8.45192 5.6567 8.47501C5.45637 9.21988 5.27871 10.0065 5.13729 10.8295C4.98477 11.7115 4.87925 12.6011 4.82117 13.4943L4.8194 13.4877C4.78998 13.4504 4.76043 13.4061 4.72648 13.3585L4.70802 13.3325C4.75116 13.124 4.75371 12.9091 4.71553 12.6997C4.70175 12.5589 4.6825 12.4011 4.66131 12.2261C4.58742 11.5015 4.37802 10.7973 4.04405 10.1504C4.02889 10.1235 4.01268 10.0959 3.99609 10.0703C3.62068 9.42869 3.1353 8.8585 2.56225 8.38588C2.44015 8.29109 2.30978 8.20751 2.17272 8.13615C1.83335 7.96154 1.54355 7.9127 1.45104 7.96679C1.42738 7.98164 1.41023 8.00493 1.40305 8.03196C1.36084 8.19559 1.34022 8.36406 1.34173 8.53306C1.33317 8.71255 1.32857 8.92996 1.32225 9.18062C1.26403 10.0021 1.43103 10.824 1.8052 11.5573C1.82179 11.5829 1.83838 11.6086 1.85536 11.6324C2.24218 12.2954 2.80153 12.8405 3.47361 13.2096C3.64633 13.2956 3.82959 13.3583 4.01867 13.3963C4.199 13.437 4.3849 13.447 4.56853 13.4258C4.60141 13.423 4.63353 13.4144 4.66339 13.4003L4.66586 13.3996C4.69492 13.4521 4.72085 13.5027 4.74554 13.5421L4.81799 13.6609C4.79077 14.1209 4.77462 14.586 4.7735 15.0576C4.77066 16.1153 4.83547 17.1721 4.96755 18.2215C4.93776 18.1994 4.90648 18.175 4.87267 18.1478L4.84706 18.1281C4.82885 17.9157 4.76962 17.709 4.67269 17.5193C4.61932 17.3892 4.55448 17.2427 4.48237 17.0823C4.20039 16.4107 3.7948 15.7984 3.28678 15.2772C3.26425 15.2558 3.2409 15.2346 3.21694 15.2144C2.66978 14.7111 2.03829 14.3086 1.35151 14.0252C1.20807 13.97 1.06005 13.9277 0.909173 13.8986C0.665108 13.8234 0.401932 13.8408 0.169858 13.9475C0.151753 13.9687 0.142298 13.9959 0.143391 14.0237C0.149012 14.1938 0.177154 14.3623 0.227076 14.5249C0.273519 14.6984 0.329692 14.9084 0.394711 15.1514C0.57818 15.9541 0.977201 16.6912 1.5486 17.2831L1.61959 17.3402C2.18293 17.8603 2.8768 18.2172 3.62696 18.3726C3.81722 18.4055 4.01098 18.413 4.20321 18.395C4.3873 18.3808 4.56773 18.3359 4.73706 18.2622C4.76728 18.2486 4.79487 18.2298 4.81857 18.2066C4.86153 18.2482 4.90075 18.2891 4.9371 18.3192L4.98127 18.3587C5.03485 18.766 5.09851 19.1736 5.17226 19.5814C5.3972 20.8149 5.71204 22.0303 6.11425 23.2177L6.05783 23.1886L6.02816 23.1735C5.96787 22.961 5.86723 22.7621 5.73175 22.5878C5.65138 22.4658 5.55752 22.3298 5.45307 22.1807C5.0346 21.5522 4.50186 21.0083 3.88264 20.5773L3.79935 20.527C3.14376 20.1219 2.42195 19.836 1.66714 19.6823C1.50987 19.6558 1.35058 19.6431 1.1911 19.6446C0.92759 19.6174 0.663319 19.6884 0.448737 19.844C0.434241 19.8691 0.429854 19.8988 0.436472 19.927C0.476741 20.0977 0.539216 20.2623 0.622295 20.4167C0.700966 20.5851 0.80174 20.7866 0.91818 21.0203C1.26332 21.7987 1.81382 22.468 2.5104 22.9562L2.59402 23.0011C3.26856 23.4203 4.04398 23.6483 4.83764 23.6608C5.0388 23.6557 5.23839 23.6238 5.43118 23.566C5.61588 23.5158 5.79088 23.4349 5.94893 23.3268C5.97597 23.3071 5.99939 23.2828 6.01815 23.255C6.06946 23.2882 6.11643 23.3217 6.15827 23.3459C6.24597 23.5987 6.33771 23.8502 6.43351 24.1003C6.97211 25.4848 7.6471 26.812 8.44846 28.0623L8.40956 28.0524C8.30082 27.8392 8.15207 27.649 7.97148 27.4923C7.85998 27.3796 7.73132 27.2556 7.58937 27.1183C7.0141 26.5388 6.33519 26.073 5.58804 25.745L5.49007 25.7093C4.70856 25.4172 3.88174 25.2656 3.04765 25.2616C2.87471 25.2662 2.70251 25.286 2.53306 25.321C2.2474 25.3463 1.98097 25.4759 1.78438 25.6851C1.77512 25.7139 1.77653 25.7449 1.78835 25.7727C1.86697 25.9452 1.96783 26.1067 2.08836 26.2529C2.20773 26.4148 2.36015 26.6078 2.52966 26.8316C3.0593 27.5891 3.78553 28.1872 4.62983 28.5611L4.72625 28.591C5.53126 28.894 6.40326 28.9724 7.24923 28.8177C7.46065 28.7699 7.6649 28.6945 7.85673 28.5934C8.04253 28.5008 8.21162 28.3778 8.35704 28.2295C8.38354 28.2027 8.4051 28.1714 8.42073 28.1371L8.53086 28.1819L8.5883 28.271C9.0171 28.9186 9.47484 29.539 9.95428 30.1313C10.4337 30.7237 10.9458 31.2763 11.4672 31.8007C11.5699 31.9024 11.6734 32.0031 11.7779 32.1026L11.748 32.1L11.7119 32.0973C11.5641 31.9093 11.3814 31.7517 11.1739 31.6332C11.0432 31.5443 10.8934 31.4472 10.7269 31.3404C10.0494 30.8842 9.29229 30.5598 8.49505 30.3843L8.39079 30.368C7.56753 30.2338 6.72711 30.2461 5.9081 30.4042C5.74096 30.4421 5.57755 30.4949 5.41983 30.562C5.14563 30.6429 4.9104 30.8214 4.75841 31.064C4.755 31.0951 4.76336 31.1263 4.78185 31.1516C4.89236 31.3057 5.02258 31.4447 5.16918 31.5649C5.31817 31.7021 5.50129 31.8611 5.71448 32.0466C6.38059 32.6868 7.20879 33.1322 8.1094 33.3345L8.21107 33.3444C9.05941 33.4851 9.92996 33.3927 10.73 33.077C10.9281 32.989 11.1138 32.8754 11.2824 32.739C11.4467 32.6121 11.5888 32.4586 11.7029 32.2849C11.7229 32.2543 11.7375 32.2204 11.7459 32.1847C11.8026 32.1952 11.8563 32.2073 11.9043 32.2148C12.7948 33.0564 13.7488 33.8279 14.7577 34.5225C15.1408 34.7846 15.5231 35.0315 15.9046 35.2633L15.8147 35.2778L15.7801 35.2871C15.5911 35.1409 15.3757 35.0327 15.1458 34.9684C14.9978 34.9143 14.8284 34.8561 14.6411 34.7939C13.8718 34.5167 13.0573 34.3871 12.2402 34.4121L12.1349 34.4218C11.3037 34.4924 10.4914 34.7092 9.73517 35.0621C9.58123 35.1403 9.43445 35.232 9.29651 35.3359C8.95558 35.595 8.76463 35.866 8.77452 35.9856C8.7786 36.0156 8.79351 36.0431 8.81644 36.0629C8.96111 36.1855 9.12123 36.2884 9.29268 36.3691C9.47038 36.4649 9.68749 36.5758 9.93823 36.7033C10.7398 37.1619 11.6514 37.3919 12.5741 37.3684L12.6753 37.3536C13.5322 37.2832 14.3541 36.9812 15.0533 36.4799C15.2241 36.3464 15.3766 36.1911 15.507 36.0178C15.6352 35.8542 15.7354 35.6704 15.8035 35.4739C15.8155 35.4385 15.8211 35.4013 15.8201 35.364C15.8869 35.3593 15.9503 35.3583 16.0026 35.3522L16.0396 35.3484C16.7244 35.7598 17.4015 36.1228 18.0572 36.4419C18.8237 36.8154 19.5593 37.1325 20.2505 37.3995L20.2365 37.4033C20.1878 37.4261 20.1322 37.4463 20.0715 37.4706L20.0369 37.4799C19.8212 37.3772 19.5878 37.3171 19.3494 37.3031C19.1933 37.2813 19.0154 37.2609 18.8195 37.2391C18.0071 37.133 17.182 37.1816 16.3875 37.3822C16.3537 37.3913 16.3199 37.4004 16.2874 37.4144C15.4898 37.6592 14.7416 38.0432 14.0773 38.5486C13.9433 38.6574 13.8193 38.7778 13.7068 38.9087C13.427 39.2345 13.2984 39.5402 13.3333 39.654C13.3429 39.685 13.3641 39.711 13.3925 39.7267C13.5597 39.8158 13.7378 39.8826 13.9222 39.9254C14.1142 39.982 14.3508 40.0433 14.6237 40.1153C15.504 40.3936 16.4435 40.4252 17.3404 40.2067L17.4361 40.1712C18.2587 39.9207 18.9982 39.4513 19.5758 38.8132C19.7143 38.6463 19.8306 38.4619 19.9215 38.2649C20.0126 38.0781 20.0718 37.8775 20.0969 37.6711C20.101 37.6341 20.0984 37.5967 20.0894 37.5606C20.1537 37.5433 20.2156 37.5267 20.2659 37.5132L20.4011 37.4698C20.6146 37.5506 20.8242 37.6272 21.027 37.6976C21.4767 37.8683 21.9103 37.9919 22.3047 38.1243L23.4028 38.4415L24.2984 38.6695C24.5593 38.7358 24.7792 38.7778 24.9574 38.8194L25.5054 38.9379L25.6268 38.3737L25.0754 38.2561C24.8966 38.2155 24.6722 38.1766 24.4187 38.1145L24.4197 38.1115Z" fill="url(#paint0_linear_7874_50384)"/>
<defs>
<linearGradient id="paint0_linear_7874_50384" x1="5.54774" y1="1.57866" x2="16.253" y2="41.4238" gradientUnits="userSpaceOnUse">
<stop stop-color="#5ADFFF"/>
<stop offset="0.468" stop-color="#A857AF"/>
<stop offset="1" stop-color="#96DFFF"/>
</linearGradient>
</defs>
</svg>