<svg xmlns="http://www.w3.org/2000/svg" width="26" height="41" viewBox="0 0 26 41" fill="none">
<path d="M1.57822 38.1086L2.45558 37.896L3.54071 37.5975C3.92837 37.4704 4.35705 37.3552 4.79833 37.1929C5.03278 37.1142 5.27369 37.0289 5.52106 36.937C5.52858 36.9089 5.53375 36.8731 5.54129 36.8317C5.54882 36.7903 5.57136 36.7193 5.58201 36.6531C5.546 36.6435 5.51192 36.6278 5.4813 36.6065C5.31299 36.485 5.16605 36.3362 5.04649 36.1663C4.91792 35.9917 4.81259 35.8011 4.73316 35.5993C4.45309 34.7843 4.39899 33.9084 4.57661 33.065C4.58545 33.0319 4.58583 32.9975 4.59138 32.9635C4.83211 32.0707 5.31204 31.2609 5.97918 30.6218C6.17364 30.4171 6.34133 30.2398 6.48295 30.0971C6.60894 29.9556 6.75307 29.8313 6.91159 29.7276C6.93796 29.7109 6.96958 29.7046 7.00034 29.7099C7.11759 29.7343 7.32198 29.9947 7.47283 30.3958C7.53331 30.5578 7.57915 30.7249 7.60978 30.8951C7.73208 31.7222 7.70757 32.5644 7.53739 33.3829C7.52832 33.4168 7.5242 33.4521 7.51679 33.4864C7.30693 34.2769 6.95071 35.0209 6.46667 35.6796C6.35269 35.8413 6.24973 35.9881 6.15583 36.1144C6.02879 36.3173 5.86364 36.4934 5.66956 36.6332L5.66522 36.6692C5.65749 36.7345 5.648 36.7931 5.64419 36.847L5.63989 36.8928C6.30243 36.6437 7.0053 36.3497 7.73453 36.0034C8.42385 35.6774 9.13783 35.3022 9.86035 34.8753C9.86197 34.8527 9.86284 34.8264 9.86414 34.7984C9.86586 34.7457 9.87398 34.6823 9.87924 34.6164C9.84236 34.6132 9.80632 34.6036 9.77283 34.5878C9.5902 34.4889 9.42533 34.3602 9.28503 34.2069C9.13232 34.0526 9.00044 33.879 8.89274 33.6904C8.49864 32.9245 8.31925 32.0658 8.37367 31.2058C8.373 31.1719 8.37337 31.1375 8.37375 31.103C8.48375 30.1847 8.84267 29.3141 9.41154 28.5857C9.57413 28.3548 9.71506 28.1552 9.83592 27.991C9.94047 27.8314 10.0655 27.6863 10.2078 27.5593C10.2313 27.5388 10.2617 27.528 10.2928 27.529C10.412 27.5362 10.6524 27.7647 10.8586 28.1408C10.9415 28.2926 11.0109 28.4515 11.0657 28.6155C11.305 29.4153 11.4019 30.2511 11.352 31.0846C11.3506 31.1196 11.349 31.1555 11.3469 31.1895C11.2526 32.002 11.0068 32.7895 10.6224 33.511C10.5326 33.688 10.452 33.8471 10.3767 33.9863C10.2802 34.2054 10.1422 34.4036 9.97034 34.57L9.97117 34.6065C9.97295 34.6725 9.97216 34.7317 9.97643 34.7851L9.97311 34.7975C10.3152 34.5941 10.6589 34.3767 11.0044 34.1452C12.0121 33.4689 12.9658 32.715 13.8569 31.8905L13.8508 31.8374C13.8436 31.785 13.8411 31.7214 13.8348 31.6559C13.7978 31.6577 13.7607 31.6528 13.7254 31.6416C13.5282 31.5773 13.3432 31.4803 13.178 31.3546C13.0024 31.2276 12.8441 31.0782 12.7073 30.91C12.1932 30.2191 11.8758 29.4014 11.7887 28.544C11.7826 28.5105 11.7768 28.4761 11.7715 28.4428C11.73 27.5188 11.9417 26.6011 12.3835 25.789C12.5063 25.5349 12.6121 25.3144 12.7042 25.1354C12.7814 24.962 12.881 24.7996 13.0006 24.6524C13.0204 24.6281 13.0486 24.6123 13.0796 24.6081C13.3542 24.6916 13.5887 24.8732 13.7388 25.1183C13.8455 25.2531 13.9401 25.3971 14.0215 25.5486C14.389 26.2991 14.6213 27.1086 14.7079 27.94C14.7119 27.9747 14.7164 28.0105 14.7196 28.045C14.7596 28.8623 14.6459 29.6799 14.3842 30.4551C14.3248 30.6438 14.2712 30.8146 14.2198 30.9638C14.1601 31.1955 14.0562 31.4133 13.9137 31.6054L13.9202 31.6408C13.9312 31.6987 13.9398 31.7524 13.9508 31.8005C14.0538 31.7041 14.1569 31.6063 14.2601 31.5071C14.7791 30.998 15.283 30.453 15.7679 29.8833C16.2527 29.3137 16.7031 28.7011 17.1374 28.0691C17.1508 28.0488 17.1644 28.0277 17.1778 28.0073L17.1624 27.9624C17.1446 27.9134 17.1287 27.8506 17.1103 27.7872C17.0744 27.7966 17.0371 27.7995 17.0002 27.7957C16.7939 27.7729 16.5928 27.7159 16.4052 27.627C16.2075 27.5384 16.0223 27.4243 15.8541 27.2876C15.212 26.7161 14.7365 25.9809 14.4782 25.1601C14.4655 25.1284 14.4528 25.0966 14.4418 25.0618C14.2133 24.1655 14.2338 23.2237 14.5012 22.3383C14.5701 22.0644 14.6292 21.8269 14.6828 21.6331C14.7232 21.4478 14.7875 21.2685 14.8741 21.0998C14.8884 21.0722 14.9127 21.0512 14.942 21.041C15.2278 21.0663 15.4943 21.1962 15.6905 21.406C15.8226 21.5163 15.9447 21.6381 16.0555 21.7698C16.5677 22.4296 16.9597 23.1746 17.2137 23.9708C17.2252 24.004 17.2364 24.038 17.2477 24.0685C17.453 24.8603 17.5077 25.6838 17.4089 26.4959C17.3899 26.6928 17.3713 26.8712 17.355 27.0281C17.3436 27.2671 17.2862 27.5017 17.186 27.7189L17.2 27.7528C17.2209 27.8036 17.2389 27.8519 17.2585 27.8943C18.0746 26.6591 18.7645 25.3446 19.3179 23.9709C19.4089 23.7431 19.4962 23.5138 19.5798 23.2828L19.5074 23.1535C19.4833 23.1116 19.4587 23.058 19.4302 23.0026C19.4001 23.017 19.3677 23.0263 19.3345 23.03C19.1434 23.0444 18.9512 23.0266 18.7659 22.9773C18.5702 22.9305 18.3815 22.8581 18.2047 22.7619C17.5235 22.3531 16.9656 21.767 16.5905 21.0657L16.5405 20.9849C16.181 20.2106 16.0398 19.3525 16.132 18.5034C16.148 18.242 16.1612 18.0178 16.1771 17.8325C16.1822 17.6572 16.2103 17.4833 16.2607 17.3154C16.2693 17.2877 16.2878 17.2643 16.3128 17.2496C16.5763 17.2224 16.8406 17.2934 17.0551 17.4491C17.1941 17.5275 17.3257 17.6184 17.4485 17.7204C18.0253 18.2318 18.5076 18.8413 18.873 19.5207C18.8891 19.5487 18.9047 19.5771 18.92 19.606C19.2407 20.2897 19.4305 21.0277 19.4793 21.7816C19.4953 21.9631 19.5087 22.1279 19.5174 22.2738C19.5477 22.4926 19.5355 22.7153 19.4816 22.9295L19.4998 22.9574C19.5331 23.008 19.5619 23.0556 19.5911 23.0954L19.6283 23.1479C20.0487 21.9604 20.3797 20.743 20.6187 19.506C20.6999 19.0878 20.7697 18.6695 20.828 18.251L20.7401 18.16C20.7064 18.1271 20.672 18.0842 20.6294 18.0417C20.6039 18.0631 20.5749 18.0799 20.5436 18.0913C20.3693 18.1529 20.186 18.1848 20.0011 18.1857C19.8084 18.1911 19.6157 18.1712 19.4281 18.1265C18.6913 17.9176 18.0248 17.5122 17.4998 16.9537L17.4333 16.8915C16.905 16.261 16.5589 15.4976 16.4325 14.6841C16.3817 14.4375 16.3379 14.2246 16.3063 14.0487C16.2673 13.8843 16.2501 13.7156 16.2549 13.5467C16.2558 13.5189 16.2673 13.4925 16.2871 13.4729C16.5261 13.383 16.7897 13.3842 17.028 13.4762C17.1768 13.5144 17.3219 13.5658 17.4616 13.6299C18.1267 13.9613 18.7283 14.4075 19.2388 14.9482L19.3037 15.0161C19.7735 15.5708 20.1351 16.2089 20.3697 16.8973C20.4297 17.0631 20.4841 17.2133 20.5289 17.3467C20.612 17.543 20.6566 17.7535 20.6601 17.9667L20.6843 17.9883C20.7278 18.0274 20.7657 18.0642 20.8037 18.0939L20.8456 18.129C20.985 17.1004 21.0594 16.064 21.0685 15.026C21.0727 14.5044 21.0599 13.9907 21.0323 13.4827L20.9896 13.4473C20.9532 13.418 20.9126 13.3779 20.8684 13.3385C20.8452 13.3624 20.8181 13.3821 20.7882 13.3967C20.6212 13.4758 20.4422 13.5262 20.2585 13.5459C20.0672 13.5714 19.8734 13.5715 19.682 13.5461C18.9272 13.4138 18.2223 13.0787 17.6427 12.5764L17.5691 12.5212C16.9788 11.9482 16.5561 11.2243 16.3467 10.428C16.2712 10.188 16.2056 9.98072 16.1585 9.8095C16.103 9.64982 16.0684 9.48358 16.0557 9.31496C16.0525 9.28736 16.06 9.25958 16.0765 9.23726C16.3051 9.1232 16.5675 9.09723 16.8139 9.16429C16.966 9.18711 17.1157 9.22349 17.2614 9.27299C17.9569 9.53507 18.6009 9.91803 19.1637 10.4043L19.2358 10.4653C19.7603 10.9698 20.1852 11.5687 20.4884 12.2309C20.5652 12.3897 20.634 12.5358 20.6924 12.6613C20.7948 12.8479 20.8602 13.0526 20.8847 13.2641L20.9113 13.2836C20.9515 13.3121 20.985 13.3389 21.0202 13.3625C20.9707 12.5123 20.8777 11.6653 20.7417 10.8247C20.6041 9.97439 20.4281 9.16163 20.2274 8.39184L20.1158 8.33618C20.0788 8.31915 20.0386 8.29418 19.99 8.26782C19.9752 8.29312 19.956 8.31557 19.9334 8.33412C19.8085 8.43584 19.6675 8.51595 19.5163 8.57113C19.3584 8.6319 19.1932 8.67152 19.025 8.68898C18.3513 8.74087 17.6762 8.60729 17.0727 8.30268L17 8.27072C16.3788 7.90332 15.8698 7.37256 15.5283 6.73596C15.4153 6.54701 15.3167 6.38322 15.2391 6.24718C15.1588 6.1225 15.0953 5.98777 15.0501 5.84646C15.0428 5.8232 15.0444 5.79802 15.0548 5.77596C15.0975 5.69261 15.3357 5.59184 15.6691 5.56181C15.8035 5.54983 15.9387 5.54998 16.0731 5.56225C16.7199 5.64182 17.3475 5.83535 17.9271 6.13391L18.0004 6.17044C18.5525 6.49293 19.0389 6.91668 19.4345 7.41955C19.5336 7.53478 19.6212 7.64691 19.7007 7.74624C19.8267 7.8842 19.9247 8.04533 19.9893 8.22069L20.0166 8.228C20.0643 8.24791 20.106 8.2671 20.1458 8.28044L20.1941 8.29787C20.0906 7.90738 19.9815 7.5287 19.8668 7.16183C19.6507 6.46941 19.4168 5.8236 19.179 5.22546C18.9752 5.20011 18.7828 5.1177 18.6237 4.98768C18.5204 4.92213 18.4078 4.84493 18.286 4.75609C17.7835 4.40309 17.3719 3.9354 17.0853 3.3916L17.0509 3.31857C16.7875 2.74092 16.5888 2.13575 16.4586 1.51419C16.4342 1.38806 16.4194 1.26027 16.4141 1.13191C16.4006 0.819064 16.4565 0.596661 16.5344 0.550244C16.5562 0.538037 16.5818 0.534197 16.6062 0.539424C16.7571 0.566928 16.9039 0.613797 17.0428 0.678873C17.1909 0.739929 17.3659 0.819709 17.5612 0.915615C18.2013 1.19211 18.7292 1.67742 19.0592 2.29264C19.0696 2.31669 19.0791 2.34051 19.0884 2.36517C19.3626 2.96213 19.507 3.61065 19.5121 4.26776C19.5084 4.42857 19.485 4.58831 19.4423 4.74339C19.4065 4.88978 19.3451 5.02866 19.261 5.15358C19.2526 5.16436 19.2436 5.17467 19.2341 5.18447C19.4817 5.78257 19.7232 6.43307 19.9515 7.12964C20.0783 7.5181 20.1993 7.92182 20.3126 8.33766L20.322 8.32246C20.3447 8.28694 20.3655 8.24557 20.3899 8.20073C20.3921 8.19246 20.3945 8.18337 20.4036 8.17606C20.3449 7.99874 20.3208 7.81181 20.3325 7.62538C20.3311 7.50185 20.3329 7.35969 20.3346 7.20777C20.3289 6.56874 20.4431 5.93433 20.6714 5.33762C20.6785 5.31118 20.6938 5.28694 20.7057 5.26265C20.9719 4.66672 21.3411 4.12256 21.7962 3.65525C21.8932 3.56161 21.9984 3.47691 22.1106 3.40216C22.3892 3.21655 22.6382 3.14523 22.7233 3.18404C22.7453 3.19464 22.7624 3.21317 22.7713 3.23592C22.8243 3.37441 22.8589 3.51924 22.8744 3.66674C22.8991 3.82222 22.9245 4.01155 22.9543 4.23043C23.0849 4.9411 23.019 5.67401 22.7639 6.34988C22.7523 6.37335 22.7397 6.39742 22.7273 6.42066C22.4545 7.0359 22.0201 7.56532 21.4704 7.95238C21.3285 8.0442 21.175 8.11676 21.014 8.16817C20.8606 8.221 20.6996 8.2478 20.5374 8.24745C20.5087 8.24675 20.4803 8.24122 20.4534 8.23108C20.4333 8.27972 20.4155 8.32633 20.3977 8.36319C20.3799 8.40004 20.3607 8.44185 20.351 8.46494C20.5514 9.20981 20.729 9.99644 20.8704 10.8194C21.023 11.7014 21.1285 12.591 21.1866 13.4843L21.1883 13.4777C21.2178 13.4404 21.2473 13.396 21.2812 13.3485L21.2997 13.3224C21.2566 13.1139 21.254 12.899 21.2922 12.6896C21.306 12.5489 21.3252 12.391 21.3464 12.216C21.4169 11.4938 21.622 10.7913 21.951 10.1449C21.9661 10.118 21.9823 10.0904 21.9989 10.0648C22.3757 9.42323 22.8624 8.85339 23.4369 8.38147C23.559 8.28669 23.6894 8.20311 23.8264 8.13174C24.1658 7.95713 24.4556 7.9083 24.5481 7.96239C24.5718 7.97723 24.5889 8.00052 24.5961 8.02755C24.6383 8.19118 24.6589 8.35965 24.6574 8.52865C24.666 8.70815 24.6706 8.92556 24.6769 9.17621C24.7351 9.99773 24.5681 10.8196 24.1939 11.5529C24.1774 11.5785 24.1608 11.6042 24.1438 11.628C23.7571 12.2903 23.1982 12.8349 22.5268 13.2038C22.3541 13.2897 22.1708 13.3525 21.9817 13.3905C21.8014 13.4312 21.6155 13.4412 21.4319 13.4199C21.399 13.4171 21.3669 13.4085 21.337 13.3945L21.3337 13.3936C21.3047 13.446 21.2787 13.4966 21.254 13.5361L21.183 13.6596C21.2102 14.1196 21.2263 14.5847 21.2275 15.0563C21.2303 16.114 21.1655 17.1708 21.0334 18.2202C21.0632 18.1981 21.0945 18.1738 21.1283 18.1465L21.1539 18.1268C21.1721 17.9145 21.2313 17.7077 21.3283 17.518C21.3816 17.388 21.4465 17.2415 21.5186 17.081C21.8005 16.4095 22.2061 15.7971 22.7142 15.2759C22.7367 15.2545 22.7601 15.2333 22.784 15.2132C23.3312 14.71 23.9627 14.3074 24.6494 14.0239C24.7933 13.97 24.9415 13.9289 25.0925 13.9011C25.3366 13.8258 25.5998 13.8433 25.8319 13.95C25.85 13.9712 25.8594 13.9984 25.8583 14.0262C25.8513 14.1952 25.822 14.3625 25.7712 14.5238C25.7247 14.6973 25.6686 14.9073 25.6035 15.1503C25.4201 15.953 25.0211 16.6901 24.4496 17.282C24.4267 17.3015 24.403 17.3208 24.3787 17.3391C23.8152 17.8585 23.1215 18.2148 22.3717 18.3698C22.1815 18.4027 21.9877 18.4102 21.7955 18.3922C21.6114 18.378 21.431 18.3332 21.2616 18.2594C21.2314 18.2458 21.2038 18.227 21.1801 18.2039C21.1372 18.2455 21.0979 18.2863 21.0616 18.3164L21.0174 18.3559C20.9638 18.7633 20.9002 19.1708 20.8264 19.5786C20.6015 20.8122 20.2867 22.0275 19.8844 23.2149L19.9409 23.1858L19.9705 23.1707C20.0308 22.9582 20.1315 22.7593 20.2669 22.585C20.3473 22.4631 20.4412 22.3271 20.5456 22.1779C20.9641 21.5495 21.4969 21.0056 22.1161 20.5745L22.1993 20.5243C22.8549 20.1192 23.5768 19.8332 24.3316 19.6796C24.4888 19.653 24.6481 19.6404 24.8076 19.6418C25.0711 19.6146 25.3354 19.6856 25.55 19.8413C25.5644 19.8664 25.5688 19.8961 25.5622 19.9243C25.522 20.095 25.4595 20.2596 25.3764 20.4139C25.2977 20.5824 25.197 20.7839 25.0805 21.0175C24.7354 21.7959 24.1849 22.4653 23.4883 22.9535L23.4047 22.9983C22.7299 23.4177 21.9542 23.6456 21.1602 23.6578C20.9591 23.6527 20.7595 23.6208 20.5667 23.563C20.382 23.5128 20.207 23.432 20.0489 23.3238C20.0219 23.3041 19.9985 23.2798 19.9797 23.2521C19.9284 23.2852 19.8814 23.3187 19.8396 23.3429C19.7519 23.5957 19.6602 23.8472 19.5644 24.0973C19.0258 25.4818 18.3508 26.809 17.5494 28.0593L17.5848 28.0493C17.6935 27.8362 17.8423 27.646 18.0229 27.4893C18.1335 27.3764 18.263 27.2526 18.405 27.1153C18.9813 26.5358 19.6614 26.0702 20.4096 25.7428L20.5076 25.7071C21.2891 25.4151 22.1159 25.2635 22.95 25.2594C23.1229 25.2643 23.295 25.2844 23.4644 25.3197C23.7501 25.3449 24.0165 25.4745 24.213 25.6838C24.2223 25.7125 24.2209 25.7436 24.2091 25.7714C24.1305 25.9439 24.0296 26.1053 23.9091 26.2516C23.7897 26.4135 23.6373 26.6065 23.4678 26.8303C22.9381 27.5878 22.2119 28.1859 21.3676 28.5598L21.2712 28.5897C20.4662 28.8926 19.5942 28.971 18.7482 28.8164C18.5368 28.7686 18.3325 28.6932 18.1407 28.5921C17.9549 28.4995 17.7858 28.3765 17.6404 28.2282C17.6139 28.2014 17.5923 28.1701 17.5767 28.1358L17.4651 28.1828L17.4076 28.272C16.9788 28.9196 16.5211 29.5399 16.0417 30.1323C15.5622 30.7246 15.0501 31.2772 14.5287 31.8016C14.4261 31.9034 14.3225 32.004 14.2181 32.1036L14.248 32.1009L14.284 32.0982C14.4318 31.9102 14.6145 31.7526 14.822 31.6341C14.9528 31.5452 15.1025 31.4481 15.269 31.3414C15.9465 30.8851 16.7037 30.5608 17.5009 30.3852L17.6052 30.3689C18.4284 30.2348 19.2688 30.2471 20.0878 30.4052C20.255 30.443 20.4184 30.4958 20.5761 30.5629C20.8503 30.6438 21.0855 30.8223 21.2375 31.0649C21.2409 31.096 21.2325 31.1272 21.2141 31.1525C21.1036 31.3067 20.9734 31.4456 20.8268 31.5659C20.6778 31.703 20.4947 31.862 20.2815 32.0475C19.6153 32.6877 18.7871 33.1331 17.8865 33.3355L17.7849 33.3454C16.9365 33.4861 16.066 33.3936 15.2659 33.0779C15.0678 32.9899 14.8821 32.8763 14.7136 32.7399C14.5492 32.613 14.4071 32.4595 14.2931 32.2858C14.2731 32.2552 14.2585 32.2213 14.25 32.1857C14.1933 32.1961 14.1397 32.2083 14.0917 32.2158C13.2012 33.0574 12.2472 33.8289 11.2383 34.5234C10.8551 34.7855 10.4728 35.0325 10.0914 35.2643L10.1812 35.2787L10.2159 35.288C10.4048 35.1418 10.6202 35.0336 10.8502 34.9694C10.9982 34.9152 11.1676 34.8571 11.3548 34.7949C12.127 34.5149 12.945 34.3838 13.7658 34.4087L13.871 34.4184C14.7021 34.4904 15.5141 34.7085 16.2697 35.0628C16.4236 35.141 16.5704 35.2326 16.7083 35.3366C17.0493 35.5956 17.2402 35.8667 17.2303 35.9863C17.2263 36.0163 17.2113 36.0438 17.1884 36.0636C17.0437 36.1861 16.8836 36.2891 16.7122 36.3698C16.5345 36.4656 16.3174 36.5764 16.0666 36.704C15.2651 37.1626 14.3535 37.3926 13.4308 37.3691L13.3316 37.3531C12.4747 37.2826 11.6529 36.9807 10.9536 36.4794C10.7829 36.3459 10.6304 36.1905 10.4999 36.0173C10.3718 35.8536 10.2716 35.6698 10.2034 35.4734C10.1914 35.438 10.1858 35.4008 10.1868 35.3635C10.12 35.3588 10.0566 35.3577 10.0043 35.3517L9.96731 35.3479C9.28255 35.7593 8.60544 36.1223 7.94957 36.4422C7.18301 36.8157 6.44743 37.1328 5.75621 37.3998L5.77023 37.4036C5.81894 37.4264 5.87453 37.4466 5.93522 37.4709L5.96987 37.4802C6.18549 37.3774 6.41891 37.3174 6.65728 37.3034C6.81343 37.2816 6.9913 37.2612 7.18722 37.2394C7.99682 37.1333 8.81911 37.1808 9.61119 37.3794L9.71131 37.4117C10.5088 37.6566 11.257 38.0405 11.9214 38.5459C12.0557 38.6546 12.1799 38.7752 12.2928 38.9061C12.5725 39.232 12.7011 39.5377 12.6663 39.6515C12.6566 39.6824 12.6354 39.7085 12.607 39.7241C12.4389 39.8117 12.2601 39.8768 12.0751 39.9179C11.8831 39.9744 11.6466 40.0358 11.3736 40.1077C10.4933 40.3861 9.55383 40.4177 8.65693 40.1991L8.5612 40.1637C7.7386 39.9131 6.99917 39.4438 6.42158 38.8056C6.283 38.6387 6.16676 38.4544 6.07581 38.2573C5.98477 38.0706 5.9255 37.8699 5.90047 37.6636C5.89639 37.6266 5.89892 37.5892 5.90794 37.5531C5.8436 37.5358 5.78174 37.5192 5.73142 37.5056L5.59627 37.4622C5.38278 37.5431 5.17309 37.6197 4.97034 37.6901C4.52063 37.8608 4.08704 37.9844 3.69266 38.1167L2.59128 38.433L1.69564 38.6611C1.43475 38.7274 1.21488 38.7693 1.03664 38.8109L0.488589 38.9295L0.36723 38.3653L0.917316 38.2491C1.09615 38.2085 1.32053 38.1696 1.5741 38.1075L1.57822 38.1086Z" fill="url(#paint0_linear_7874_50385)"/>
<defs>
<linearGradient id="paint0_linear_7874_50385" x1="9.78475" y1="41.4271" x2="20.4913" y2="1.577" gradientUnits="userSpaceOnUse">
<stop stop-color="#5ADFFF"/>
<stop offset="0.468" stop-color="#A857AF"/>
<stop offset="1" stop-color="#96DFFF"/>
</linearGradient>
</defs>
</svg>